STARTFONT 2.1
FONT -Adobe-Courier-Bold-O-Normal--18-180-75-75-M-110-ISO10646-1
SIZE 18 75 75
FONTBOUNDINGBOX 21 26 -5 -7
COMMENT $Xorg: $
COMMENT ISO10646-1 extension by Markus Kuhn <mkuhn@acm.org>, 2001-03-20
COMMENT 
COMMENT +
COMMENT  Copyright 1984-1989, 1994 Adobe Systems Incorporated.
COMMENT  Copyright 1988, 1994 Digital Equipment Corporation.
COMMENT
COMMENT  Adobe is a trademark of Adobe Systems Incorporated which may be
COMMENT  registered in certain jurisdictions.
COMMENT  Permission to use these trademarks is hereby granted only in
COMMENT  association with the images described in this file.
COMMENT
COMMENT  Permission to use, copy, modify, distribute and sell this software
COMMENT  and its documentation for any purpose and without fee is hereby
COMMENT  granted, provided that the above copyright notices appear in all
COMMENT  copies and that both those copyright notices and this permission
COMMENT  notice appear in supporting documentation, and that the names of
COMMENT  Adobe Systems and Digital Equipment Corporation not be used in
COMMENT  advertising or publicity pertaining to distribution of the software
COMMENT  without specific, written prior permission.  Adobe Systems and
COMMENT  Digital Equipment Corporation make no representations about the
COMMENT  suitability of this software for any purpose.  It is provided "as
COMMENT  is" without express or implied warranty.
COMMENT -
STARTPROPERTIES 26
FOUNDRY "Adobe"
FAMILY_NAME "Courier"
WEIGHT_NAME "Bold"
SLANT "O"
SETWIDTH_NAME "Normal"
ADD_STYLE_NAME ""
PIXEL_SIZE 18
POINT_SIZE 180
RESOLUTION_X 75
RESOLUTION_Y 75
SPACING "M"
AVERAGE_WIDTH 110
CHARSET_REGISTRY "ISO10646"
CHARSET_ENCODING "1"
CAP_HEIGHT 11
X_HEIGHT 9
FONT_ASCENT 14
FONT_DESCENT 4
FACE_NAME "Courier Bold Oblique"
COPYRIGHT "Copyright (c) 1984, 1987 Adobe Systems Incorporated. All Rights Reserved. Copyright (c) 1988, 1991 Digital Equipment Corporation. All Rights Reserved."
NOTICE "No mark"

STARTCHAR char0
ENCODING 0
SWIDTH 600 0
DWIDTH 11 0
BBX 11 11 0 0
BITMAP
AAA0
0000
8020
0000
8020
0000
8020
0000
8020
0000
AAA0
ENDCHAR
STARTCHAR space
ENCODING 32
SWIDTH 600 0
DWIDTH 11 0
BBX 1 1 0 0
BITMAP
00
ENDCHAR
STARTCHAR exclam
ENCODING 33
SWIDTH 600 0
DWIDTH 11 0
BBX 5 12 4 0
BITMAP
38
38
38
70
70
60
60
C0
C0
00
C0
C0
ENDCHAR
STARTCHAR quotedbl
ENCODING 34
SWIDTH 600 0
DWIDTH 11 0
BBX 7 6 3 6
BITMAP
66
66
66
CC
CC
88
ENDCHAR
STARTCHAR numbersign
ENCODING 35
SWIDTH 600 0
DWIDTH 11 0
BBX 12 12 0 0
BITMAP
0360
06C0
06C0
3FF0
7FE0
1B00
1B00
7FC0
FF80
3600
3600
6C00
ENDCHAR
STARTCHAR dollar
ENCODING 36
SWIDTH 600 0
DWIDTH 11 0
BBX 11 15 0 -2
BITMAP
0180
0180
07E0
1FE0
3860
3000
3C00
1F00
0780
0180
C380
FF00
FE00
1800
1800
ENDCHAR
STARTCHAR percent
ENCODING 37
SWIDTH 600 0
DWIDTH 11 0
BBX 10 12 1 0
BITMAP
0E00
1A00
3200
2400
39C0
0700
3800
E700
0D00
1900
1200
1C00
ENDCHAR
STARTCHAR ampersand
ENCODING 38
SWIDTH 600 0
DWIDTH 11 0
BBX 9 10 1 0
BITMAP
0F00
1F80
3180
3000
3000
7B80
CF00
CE00
FF00
7380
ENDCHAR
STARTCHAR quotesingle
ENCODING 39
SWIDTH 600 0
DWIDTH 11 0
BBX 4 6 5 6
BITMAP
30
30
60
60
C0
C0
ENDCHAR
STARTCHAR parenleft
ENCODING 40
SWIDTH 600 0
DWIDTH 11 0
BBX 7 15 4 -3
BITMAP
06
0C
18
30
60
60
C0
C0
C0
C0
C0
C0
C0
60
60
ENDCHAR
STARTCHAR parenright
ENCODING 41
SWIDTH 600 0
DWIDTH 11 0
BBX 6 15 1 -3
BITMAP
18
18
0C
0C
0C
0C
0C
0C
18
18
18
30
30
60
C0
ENDCHAR
STARTCHAR asterisk
ENCODING 42
SWIDTH 600 0
DWIDTH 11 0
BBX 8 8 2 4
BITMAP
0C
0C
7F
7F
1C
7E
E7
42
ENDCHAR
STARTCHAR plus
ENCODING 43
SWIDTH 600 0
DWIDTH 11 0
BBX 10 10 1 0
BITMAP
0600
0600
0C00
0C00
FFC0
FFC0
1800
1800
3000
3000
ENDCHAR
STARTCHAR comma
ENCODING 44
SWIDTH 600 0
DWIDTH 11 0
BBX 4 5 2 -3
BITMAP
30
70
60
C0
80
ENDCHAR
STARTCHAR hyphen
ENCODING 45
SWIDTH 600 0
DWIDTH 11 0
BBX 9 2 2 4
BITMAP
FF80
FF80
ENDCHAR
STARTCHAR period
ENCODING 46
SWIDTH 600 0
DWIDTH 11 0
BBX 2 2 4 0
BITMAP
C0
C0
ENDCHAR
STARTCHAR slash
ENCODING 47
SWIDTH 600 0
DWIDTH 11 0
BBX 14 16 -1 -3
BITMAP
000C
0018
0030
0060
0060
00C0
0180
0300
0300
0600
0C00
1800
1800
3000
6000
C000
ENDCHAR
STARTCHAR zero
ENCODING 48
SWIDTH 600 0
DWIDTH 11 0
BBX 8 12 2 0
BITMAP
1E
3F
63
63
C3
C3
C3
C3
C6
C6
FC
78
ENDCHAR
STARTCHAR one
ENCODING 49
SWIDTH 600 0
DWIDTH 11 0
BBX 8 12 1 0
BITMAP
03
3F
3E
06
06
0C
0C
0C
18
18
FF
FF
ENDCHAR
STARTCHAR two
ENCODING 50
SWIDTH 600 0
DWIDTH 11 0
BBX 10 12 1 0
BITMAP
0780
1FC0
30C0
30C0
01C0
0380
0700
1C00
3800
7000
FF00
FF00
ENDCHAR
STARTCHAR three
ENCODING 51
SWIDTH 600 0
DWIDTH 11 0
BBX 10 12 1 0
BITMAP
0780
1FC0
18C0
01C0
0380
1E00
1F00
0300
0300
C700
FE00
7C00
ENDCHAR
STARTCHAR four
ENCODING 52
SWIDTH 600 0
DWIDTH 11 0
BBX 9 12 1 0
BITMAP
0180
0380
0780
0D80
1B00
3300
6300
FF80
FF80
0600
1F00
1F00
ENDCHAR
STARTCHAR five
ENCODING 53
SWIDTH 600 0
DWIDTH 11 0
BBX 10 12 1 0
BITMAP
0FC0
0FC0
1800
1800
3F00
3F80
3180
0180
0380
C700
FE00
7C00
ENDCHAR
STARTCHAR six
ENCODING 54
SWIDTH 600 0
DWIDTH 11 0
BBX 10 12 1 0
BITMAP
03C0
0FC0
1C00
3000
6000
6F00
FF80
E180
C180
E380
7F00
3E00
ENDCHAR
STARTCHAR seven
ENCODING 55
SWIDTH 600 0
DWIDTH 11 0
BBX 9 12 3 0
BITMAP
7F80
FF80
C300
0600
0600
0C00
1800
1800
3000
3000
6000
6000
ENDCHAR
STARTCHAR eight
ENCODING 56
SWIDTH 600 0
DWIDTH 11 0
BBX 10 12 1 0
BITMAP
0780
1FC0
30C0
30C0
3180
1F00
3F00
6180
C180
C300
7F00
3C00
ENDCHAR
STARTCHAR nine
ENCODING 57
SWIDTH 600 0
DWIDTH 11 0
BBX 10 12 1 0
BITMAP
0780
1FC0
38C0
30C0
60C0
6180
7F80
3D80
0300
0700
FE00
F800
ENDCHAR
STARTCHAR colon
ENCODING 58
SWIDTH 600 0
DWIDTH 11 0
BBX 3 8 4 0
BITMAP
60
60
00
00
00
00
C0
C0
ENDCHAR
STARTCHAR semicolon
ENCODING 59
SWIDTH 600 0
DWIDTH 11 0
BBX 5 11 2 -3
BITMAP
18
18
00
00
00
00
30
70
60
C0
80
ENDCHAR
STARTCHAR less
ENCODING 60
SWIDTH 600 0
DWIDTH 11 0
BBX 11 9 1 1
BITMAP
01E0
0780
1E00
7800
E000
7800
1E00
0780
01C0
ENDCHAR
STARTCHAR equal
ENCODING 61
SWIDTH 600 0
DWIDTH 11 0
BBX 11 6 0 2
BITMAP
7FE0
7FE0
0000
0000
FFC0
FFC0
ENDCHAR
STARTCHAR greater
ENCODING 62
SWIDTH 600 0
DWIDTH 11 0
BBX 11 9 0 1
BITMAP
7000
3C00
0F00
03C0
00E0
03C0
0F00
3C00
F000
ENDCHAR
STARTCHAR question
ENCODING 63
SWIDTH 600 0
DWIDTH 11 0
BBX 7 11 4 0
BITMAP
7C
FE
C6
0E
3C
70
E0
C0
00
C0
C0
ENDCHAR
STARTCHAR at
ENCODING 64
SWIDTH 600 0
DWIDTH 11 0
BBX 10 13 1 -1
BITMAP
0780
1840
3040
61C0
6780
4D80
D980
DB00
DB00
CF80
C000
6300
3C00
ENDCHAR
STARTCHAR A
ENCODING 65
SWIDTH 600 0
DWIDTH 11 0
BBX 12 11 -1 0
BITMAP
0F80
0F80
0380
0780
0CC0
0CC0
1FC0
3FC0
30C0
F9F0
F9F0
ENDCHAR
STARTCHAR B
ENCODING 66
SWIDTH 600 0
DWIDTH 11 0
BBX 11 11 0 0
BITMAP
3FC0
3FE0
0C60
0C60
1FE0
1FC0
3060
3060
30E0
FFC0
FF80
ENDCHAR
STARTCHAR C
ENCODING 67
SWIDTH 600 0
DWIDTH 11 0
BBX 11 11 1 0
BITMAP
0F60
3FE0
70C0
60C0
C000
C000
C000
C000
E180
7F80
3E00
ENDCHAR
STARTCHAR D
ENCODING 68
SWIDTH 600 0
DWIDTH 11 0
BBX 11 11 0 0
BITMAP
3F80
3FC0
1860
1860
3060
3060
3060
60C0
61C0
FF80
FE00
ENDCHAR
STARTCHAR E
ENCODING 69
SWIDTH 600 0
DWIDTH 11 0
BBX 12 11 0 0
BITMAP
3FF0
3FF0
0C60
1B60
1F00
1F00
3300
30C0
30C0
FFC0
FFC0
ENDCHAR
STARTCHAR F
ENCODING 70
SWIDTH 600 0
DWIDTH 11 0
BBX 12 11 0 0
BITMAP
3FF0
3FF0
0C60
1B60
1F00
1F00
3300
3000
3000
FE00
FE00
ENDCHAR
STARTCHAR G
ENCODING 71
SWIDTH 600 0
DWIDTH 11 0
BBX 11 11 1 0
BITMAP
0F60
3FE0
70C0
60C0
C000
C000
C7C0
C7C0
E180
7F80
3E00
ENDCHAR
STARTCHAR H
ENCODING 72
SWIDTH 600 0
DWIDTH 11 0
BBX 12 11 0 0
BITMAP
3CF0
3CF0
1860
1860
3FC0
3FC0
30C0
6180
6180
F3C0
F3C0
ENDCHAR
STARTCHAR I
ENCODING 73
SWIDTH 600 0
DWIDTH 11 0
BBX 10 11 1 0
BITMAP
3FC0
3FC0
0600
0600
0C00
0C00
0C00
1800
1800
FF00
FF00
ENDCHAR
STARTCHAR J
ENCODING 74
SWIDTH 600 0
DWIDTH 11 0
BBX 12 11 0 0
BITMAP
07F0
07F0
00C0
00C0
0180
0180
6180
6300
C300
FE00
7C00
ENDCHAR
STARTCHAR K
ENCODING 75
SWIDTH 600 0
DWIDTH 11 0
BBX 12 11 0 0
BITMAP
3DF0
3DF0
18C0
1980
3300
3E00
3E00
6700
6380
F9E0
F9E0
ENDCHAR
STARTCHAR L
ENCODING 76
SWIDTH 600 0
DWIDTH 11 0
BBX 11 11 0 0
BITMAP
3F00
3F00
0C00
0C00
1800
1800
1860
3060
30C0
FFC0
FF80
ENDCHAR
STARTCHAR M
ENCODING 77
SWIDTH 600 0
DWIDTH 11 0
BBX 13 11 0 0
BITMAP
3838
3838
1870
38E0
3DE0
37E0
3760
66C0
60C0
FBE0
FBE0
ENDCHAR
STARTCHAR N
ENCODING 78
SWIDTH 600 0
DWIDTH 11 0
BBX 12 11 0 0
BITMAP
39F0
39F0
1C60
1C60
34C0
36C0
36C0
6380
6380
FB80
FB80
ENDCHAR
STARTCHAR O
ENCODING 79
SWIDTH 600 0
DWIDTH 11 0
BBX 10 11 1 0
BITMAP
0F00
3F80
71C0
60C0
C0C0
C0C0
C0C0
C180
E380
7F00
3C00
ENDCHAR
STARTCHAR P
ENCODING 80
SWIDTH 600 0
DWIDTH 11 0
BBX 11 11 0 0
BITMAP
3FC0
3FE0
1860
1860
30E0
3FC0
3F80
6000
6000
FC00
FC00
ENDCHAR
STARTCHAR Q
ENCODING 81
SWIDTH 600 0
DWIDTH 11 0
BBX 10 13 1 -2
BITMAP
0F00
3F80
71C0
60C0
C0C0
C0C0
C0C0
C180
E380
7F00
3C80
FF00
CE00
ENDCHAR
STARTCHAR R
ENCODING 82
SWIDTH 600 0
DWIDTH 11 0
BBX 12 11 0 0
BITMAP
3FC0
3FE0
1860
1860
30E0
3FC0
3F80
6380
61C0
FCF0
FCF0
ENDCHAR
STARTCHAR S
ENCODING 83
SWIDTH 600 0
DWIDTH 11 0
BBX 12 11 0 0
BITMAP
07B0
1FF0
3860
3860
1E00
0F80
03C0
60C0
61C0
FF80
EF00
ENDCHAR
STARTCHAR T
ENCODING 84
SWIDTH 600 0
DWIDTH 11 0
BBX 11 11 1 0
BITMAP
7FE0
7FE0
6660
C6C0
CCC0
0C00
0C00
1800
1800
7E00
7E00
ENDCHAR
STARTCHAR U
ENCODING 85
SWIDTH 600 0
DWIDTH 11 0
BBX 12 11 1 0
BITMAP
7DF0
7DF0
3060
6060
60C0
60C0
C0C0
C180
E380
7F00
3E00
ENDCHAR
STARTCHAR V
ENCODING 86
SWIDTH 600 0
DWIDTH 11 0
BBX 12 11 1 0
BITMAP
F9F0
F9F0
6060
60C0
3180
3180
3300
3600
1E00
1C00
1800
ENDCHAR
STARTCHAR W
ENCODING 87
SWIDTH 600 0
DWIDTH 11 0
BBX 12 11 1 0
BITMAP
F9F0
F9F0
6060
6C60
6CC0
DEC0
D6C0
F780
E780
E300
C300
ENDCHAR
STARTCHAR X
ENCODING 88
SWIDTH 600 0
DWIDTH 11 0
BBX 12 11 0 0
BITMAP
3CF0
3CF0
18C0
1980
0F00
0E00
1E00
3300
6180
F3C0
F3C0
ENDCHAR
STARTCHAR Y
ENCODING 89
SWIDTH 600 0
DWIDTH 11 0
BBX 10 11 2 0
BITMAP
F3C0
F3C0
6180
6300
3600
3C00
1800
3000
3000
FC00
FC00
ENDCHAR
STARTCHAR Z
ENCODING 90
SWIDTH 600 0
DWIDTH 11 0
BBX 10 11 1 0
BITMAP
3FC0
3FC0
6180
6300
0600
0C00
1800
3180
6180
FF00
FF00
ENDCHAR
STARTCHAR bracketleft
ENCODING 91
SWIDTH 600 0
DWIDTH 11 0
BBX 8 15 3 -3
BITMAP
0F
0F
18
18
18
30
30
30
60
60
60
C0
C0
F0
F0
ENDCHAR
STARTCHAR backslash
ENCODING 92
SWIDTH 600 0
DWIDTH 11 0
BBX 5 16 4 -3
BITMAP
C0
C0
C0
C0
60
60
60
60
30
30
30
30
18
18
18
18
ENDCHAR
STARTCHAR bracketright
ENCODING 93
SWIDTH 600 0
DWIDTH 11 0
BBX 8 15 1 -3
BITMAP
1F
1F
03
03
06
06
06
0C
0C
0C
18
18
18
F0
F0
ENDCHAR
STARTCHAR asciicircum
ENCODING 94
SWIDTH 600 0
DWIDTH 11 0
BBX 8 7 2 5
BITMAP
06
0E
1E
33
63
C3
C3
ENDCHAR
STARTCHAR underscore
ENCODING 95
SWIDTH 600 0
DWIDTH 11 0
BBX 11 2 0 -4
BITMAP
FFE0
FFE0
ENDCHAR
STARTCHAR grave
ENCODING 96
SWIDTH 600 0
DWIDTH 11 0
BBX 4 3 4 9
BITMAP
C0
60
30
ENDCHAR
STARTCHAR a
ENCODING 97
SWIDTH 600 0
DWIDTH 11 0
BBX 10 9 0 0
BITMAP
0F80
3FC0
30C0
00C0
3FC0
FF80
C180
FFC0
7DC0
ENDCHAR
STARTCHAR b
ENCODING 98
SWIDTH 600 0
DWIDTH 11 0
BBX 11 12 0 0
BITMAP
3800
3800
1800
3780
3FC0
38E0
3060
6060
6060
70C0
FFC0
EF00
ENDCHAR
STARTCHAR c
ENCODING 99
SWIDTH 600 0
DWIDTH 11 0
BBX 11 9 0 0
BITMAP
0F60
3FE0
70C0
60C0
C000
C000
E0C0
7FC0
3F00
ENDCHAR
STARTCHAR d
ENCODING 100
SWIDTH 600 0
DWIDTH 11 0
BBX 11 12 0 0
BITMAP
00E0
00E0
0060
0F60
3FC0
71C0
60C0
C0C0
C180
E380
7FC0
3DC0
ENDCHAR
STARTCHAR e
ENCODING 101
SWIDTH 600 0
DWIDTH 11 0
BBX 11 9 0 0
BITMAP
0F80
3FC0
70E0
6060
FFE0
FFE0
C000
7F80
3F80
ENDCHAR
STARTCHAR f
ENCODING 102
SWIDTH 600 0
DWIDTH 11 0
BBX 11 12 1 0
BITMAP
03E0
0FE0
0C00
7F80
7F80
1800
1800
3800
3000
3000
FE00
FE00
ENDCHAR
STARTCHAR g
ENCODING 103
SWIDTH 600 0
DWIDTH 11 0
BBX 12 13 0 -4
BITMAP
0F70
3FE0
71C0
60C0
C0C0
C1C0
E380
7F80
3D80
0300
0700
7E00
7C00
ENDCHAR
STARTCHAR h
ENCODING 104
SWIDTH 600 0
DWIDTH 11 0
BBX 10 12 0 0
BITMAP
3800
3800
1800
3780
3FC0
38C0
30C0
60C0
6180
6180
F3C0
F3C0
ENDCHAR
STARTCHAR i
ENCODING 105
SWIDTH 600 0
DWIDTH 11 0
BBX 8 12 1 0
BITMAP
06
06
00
3C
3C
0C
0C
0C
18
18
FF
FF
ENDCHAR
STARTCHAR j
ENCODING 106
SWIDTH 600 0
DWIDTH 11 0
BBX 10 16 0 -4
BITMAP
0180
0180
0000
3FC0
3FC0
0180
0180
0180
0300
0300
0300
0300
0600
0600
FC00
F800
ENDCHAR
STARTCHAR k
ENCODING 107
SWIDTH 600 0
DWIDTH 11 0
BBX 11 12 0 0
BITMAP
3800
3800
1800
19E0
33E0
3700
3E00
3C00
6E00
6700
E3C0
E3C0
ENDCHAR
STARTCHAR l
ENCODING 108
SWIDTH 600 0
DWIDTH 11 0
BBX 8 12 1 0
BITMAP
1E
1E
06
06
0C
0C
0C
18
18
18
FF
FF
ENDCHAR
STARTCHAR m
ENCODING 109
SWIDTH 600 0
DWIDTH 11 0
BBX 12 9 -1 0
BITMAP
7B60
7FF0
3BB0
3330
3330
6660
6660
F770
F770
ENDCHAR
STARTCHAR n
ENCODING 110
SWIDTH 600 0
DWIDTH 11 0
BBX 10 9 0 0
BITMAP
7B80
7FC0
38C0
30C0
30C0
6180
6180
F3C0
F3C0
ENDCHAR
STARTCHAR o
ENCODING 111
SWIDTH 600 0
DWIDTH 11 0
BBX 11 9 0 0
BITMAP
0F80
3FC0
70E0
6060
C060
C0C0
E1C0
7F80
3E00
ENDCHAR
STARTCHAR p
ENCODING 112
SWIDTH 600 0
DWIDTH 11 0
BBX 12 13 -1 -4
BITMAP
3DC0
3FE0
1C70
1830
1830
3030
3860
3FE0
3780
6000
6000
F800
F800
ENDCHAR
STARTCHAR q
ENCODING 113
SWIDTH 600 0
DWIDTH 11 0
BBX 12 13 0 -4
BITMAP
0F70
3FF0
71C0
60C0
C0C0
C180
E380
7F80
3D80
0300
0300
0F80
0F80
ENDCHAR
STARTCHAR r
ENCODING 114
SWIDTH 600 0
DWIDTH 11 0
BBX 11 9 0 0
BITMAP
7DC0
7FE0
1C60
1800
1800
3000
3000
FF00
FF00
ENDCHAR
STARTCHAR s
ENCODING 115
SWIDTH 600 0
DWIDTH 11 0
BBX 11 9 0 0
BITMAP
0F60
1FE0
30C0
3C00
1F00
6780
6180
FF80
DF00
ENDCHAR
STARTCHAR t
ENCODING 116
SWIDTH 600 0
DWIDTH 11 0
BBX 9 12 1 0
BITMAP
1800
1800
1800
FF80
FF80
3000
3000
6000
6180
6180
7F00
3E00
ENDCHAR
STARTCHAR u
ENCODING 117
SWIDTH 600 0
DWIDTH 11 0
BBX 9 9 1 0
BITMAP
E380
E380
6180
6180
C300
C300
C700
FF80
7B80
ENDCHAR
STARTCHAR v
ENCODING 118
SWIDTH 600 0
DWIDTH 11 0
BBX 11 9 1 0
BITMAP
F1E0
F1E0
60C0
6180
3300
3600
3E00
1C00
1800
ENDCHAR
STARTCHAR w
ENCODING 119
SWIDTH 600 0
DWIDTH 11 0
BBX 12 9 0 0
BITMAP
F8F0
F8F0
6660
6660
6EC0
3AC0
3BC0
3180
3180
ENDCHAR
STARTCHAR x
ENCODING 120
SWIDTH 600 0
DWIDTH 11 0
BBX 13 9 0 0
BITMAP
7CF8
7CF8
18E0
0D80
0700
0F00
3980
FBE0
FBE0
ENDCHAR
STARTCHAR y
ENCODING 121
SWIDTH 600 0
DWIDTH 11 0
BBX 12 13 0 -4
BITMAP
3CF0
3CF0
1860
0CC0
0D80
0700
0600
0600
0C00
1800
3000
F800
F800
ENDCHAR
STARTCHAR z
ENCODING 122
SWIDTH 600 0
DWIDTH 11 0
BBX 9 9 1 0
BITMAP
3F80
7F80
6700
0E00
1C00
3800
7180
FF80
FF00
ENDCHAR
STARTCHAR braceleft
ENCODING 123
SWIDTH 600 0
DWIDTH 11 0
BBX 7 15 3 -3
BITMAP
0E
18
18
30
30
30
C0
60
60
60
60
C0
C0
C0
70
ENDCHAR
STARTCHAR bar
ENCODING 124
SWIDTH 600 0
DWIDTH 11 0
BBX 6 16 3 -3
BITMAP
0C
0C
0C
18
18
18
30
30
30
60
60
60
60
C0
C0
C0
ENDCHAR
STARTCHAR braceright
ENCODING 125
SWIDTH 600 0
DWIDTH 11 0
BBX 7 15 1 -3
BITMAP
0C
06
06
06
0C
0C
06
0C
18
18
18
18
30
30
E0
ENDCHAR
STARTCHAR asciitilde
ENCODING 126
SWIDTH 600 0
DWIDTH 11 0
BBX 8 3 2 4
BITMAP
73
FF
DE
ENDCHAR
STARTCHAR space
ENCODING 160
SWIDTH 600 0
DWIDTH 11 0
BBX 1 1 0 0
BITMAP
00
ENDCHAR
STARTCHAR exclamdown
ENCODING 161
SWIDTH 600 0
DWIDTH 11 0
BBX 5 12 3 -4
BITMAP
18
18
00
30
30
30
70
70
60
E0
E0
E0
ENDCHAR
STARTCHAR cent
ENCODING 162
SWIDTH 600 0
DWIDTH 11 0
BBX 8 12 2 0
BITMAP
0C
0C
1F
7F
63
C0
C0
C3
FE
7C
30
30
ENDCHAR
STARTCHAR sterling
ENCODING 163
SWIDTH 600 0
DWIDTH 11 0
BBX 10 11 0 0
BITMAP
0F80
1FC0
18C0
1800
1800
7E00
7E00
3000
60C0
FFC0
FF80
ENDCHAR
STARTCHAR currency
ENCODING 164
SWIDTH 600 0
DWIDTH 11 0
BBX 10 9 1 1
BITMAP
30C0
3FC0
3F80
6180
6180
6180
7F00
FF00
C300
ENDCHAR
STARTCHAR yen
ENCODING 165
SWIDTH 600 0
DWIDTH 11 0
BBX 10 11 2 0
BITMAP
F3C0
F3C0
6180
6300
3600
7F00
1800
FE00
3000
FC00
FC00
ENDCHAR
STARTCHAR brokenbar
ENCODING 166
SWIDTH 600 0
DWIDTH 11 0
BBX 6 16 3 -3
BITMAP
0C
0C
0C
18
18
18
18
00
00
60
60
60
60
C0
C0
C0
ENDCHAR
STARTCHAR section
ENCODING 167
SWIDTH 600 0
DWIDTH 11 0
BBX 11 14 1 -2
BITMAP
07E0
0C60
18C0
1C00
3700
6380
71C0
38C0
1CC0
0F80
0700
C300
C600
F800
ENDCHAR
STARTCHAR dieresis
ENCODING 168
SWIDTH 600 0
DWIDTH 11 0
BBX 6 2 4 9
BITMAP
CC
CC
ENDCHAR
STARTCHAR copyright
ENCODING 169
SWIDTH 600 0
DWIDTH 11 0
BBX 12 12 0 0
BITMAP
0780
1FE0
3860
6730
6FB0
D9B0
D830
DF60
CE60
60C0
7F80
1E00
ENDCHAR
STARTCHAR ordfeminine
ENCODING 170
SWIDTH 600 0
DWIDTH 11 0
BBX 8 8 2 3
BITMAP
3E
03
3E
66
4C
76
00
FC
ENDCHAR
STARTCHAR guillemotleft
ENCODING 171
SWIDTH 600 0
DWIDTH 11 0
BBX 9 6 1 1
BITMAP
0880
3300
6600
EE00
6600
1100
ENDCHAR
STARTCHAR logicalnot
ENCODING 172
SWIDTH 600 0
DWIDTH 11 0
BBX 9 5 1 3
BITMAP
FF80
FF80
0300
0600
0600
ENDCHAR
STARTCHAR hyphen
ENCODING 173
SWIDTH 600 0
DWIDTH 11 0
BBX 9 2 2 4
BITMAP
FF80
FF80
ENDCHAR
STARTCHAR registered
ENCODING 174
SWIDTH 600 0
DWIDTH 11 0
BBX 12 12 0 0
BITMAP
0780
1FE0
3860
6F30
6DB0
CDB0
DE30
DB60
FB60
61C0
7F80
1E00
ENDCHAR
STARTCHAR macron
ENCODING 175
SWIDTH 600 0
DWIDTH 11 0
BBX 5 1 5 9
BITMAP
F8
ENDCHAR
STARTCHAR degree
ENCODING 176
SWIDTH 600 0
DWIDTH 11 0
BBX 6 6 3 6
BITMAP
38
4C
84
84
C8
70
ENDCHAR
STARTCHAR plusminus
ENCODING 177
SWIDTH 600 0
DWIDTH 11 0
BBX 11 10 0 0
BITMAP
0300
0300
7FE0
7FE0
0600
0C00
0C00
0000
FFC0
FFC0
ENDCHAR
STARTCHAR twosuperior
ENCODING 178
SWIDTH 600 0
DWIDTH 11 0
BBX 7 8 3 4
BITMAP
3C
66
06
0C
38
60
C4
FC
ENDCHAR
STARTCHAR threesuperior
ENCODING 179
SWIDTH 600 0
DWIDTH 11 0
BBX 7 8 2 4
BITMAP
3C
66
46
18
0C
8C
CC
78
ENDCHAR
STARTCHAR acute
ENCODING 180
SWIDTH 600 0
DWIDTH 11 0
BBX 4 3 7 9
BITMAP
30
60
C0
ENDCHAR
STARTCHAR mu
ENCODING 181
SWIDTH 600 0
DWIDTH 11 0
BBX 10 13 0 -4
BITMAP
71C0
71C0
30C0
30C0
6180
6180
6380
7FC0
FDC0
C000
C000
C000
C000
ENDCHAR
STARTCHAR paragraph
ENCODING 182
SWIDTH 600 0
DWIDTH 11 0
BBX 10 14 2 -2
BITMAP
1FC0
7680
C580
CD00
CB00
7A00
1A00
1A00
1600
3400
2C00
6C00
6800
FC00
ENDCHAR
STARTCHAR periodcentered
ENCODING 183
SWIDTH 600 0
DWIDTH 11 0
BBX 2 2 5 5
BITMAP
C0
C0
ENDCHAR
STARTCHAR cedilla
ENCODING 184
SWIDTH 600 0
DWIDTH 11 0
BBX 4 5 2 -5
BITMAP
20
70
30
30
E0
ENDCHAR
STARTCHAR onesuperior
ENCODING 185
SWIDTH 600 0
DWIDTH 11 0
BBX 6 8 3 4
BITMAP
18
78
18
10
10
30
30
FC
ENDCHAR
STARTCHAR ordmasculine
ENCODING 186
SWIDTH 600 0
DWIDTH 11 0
BBX 8 8 2 3
BITMAP
1E
33
63
63
66
3C
00
FC
ENDCHAR
STARTCHAR guillemotright
ENCODING 187
SWIDTH 600 0
DWIDTH 11 0
BBX 9 6 1 1
BITMAP
4400
3300
3B80
3300
6600
8800
ENDCHAR
STARTCHAR onequarter
ENCODING 188
SWIDTH 600 0
DWIDTH 11 0
BBX 12 12 -1 0
BITMAP
1C00
7830
1860
10C0
3180
3330
FE70
0CA0
1920
33F0
6060
C0F0
ENDCHAR
STARTCHAR onehalf
ENCODING 189
SWIDTH 600 0
DWIDTH 11 0
BBX 13 12 -1 0
BITMAP
1800
7818
1830
1060
30C0
3180
FBF0
06D8
0C18
1870
30C8
61F8
ENDCHAR
STARTCHAR threequarters
ENCODING 190
SWIDTH 600 0
DWIDTH 11 0
BBX 13 12 -1 0
BITMAP
3C00
6618
0630
1860
0CC0
CDB0
7B70
06A0
0D20
1BF0
3060
60F0
ENDCHAR
STARTCHAR questiondown
ENCODING 191
SWIDTH 600 0
DWIDTH 11 0
BBX 7 12 1 -4
BITMAP
06
06
00
06
06
0C
38
60
C0
C6
FE
7C
ENDCHAR
STARTCHAR Agrave
ENCODING 192
SWIDTH 600 0
DWIDTH 11 0
BBX 12 15 -1 0
BITMAP
0C00
0600
0300
0000
0F80
0F80
0380
0780
0480
0CC0
1FC0
3FC0
30C0
F9F0
F9F0
ENDCHAR
STARTCHAR Aacute
ENCODING 193
SWIDTH 600 0
DWIDTH 11 0
BBX 12 15 -1 0
BITMAP
00C0
0180
0300
0000
0F80
0F80
0380
0780
0480
0CC0
1FC0
3FC0
30C0
F9F0
F9F0
ENDCHAR
STARTCHAR Acircumflex
ENCODING 194
SWIDTH 600 0
DWIDTH 11 0
BBX 12 15 -1 0
BITMAP
0180
03C0
0660
0000
0F80
0F80
0380
0780
0480
0CC0
1FC0
3FC0
30C0
F9F0
F9F0
ENDCHAR
STARTCHAR Atilde
ENCODING 195
SWIDTH 600 0
DWIDTH 11 0
BBX 12 14 -1 0
BITMAP
0760
0DC0
0000
0F80
0F80
0380
0780
0480
0CC0
1FC0
3FC0
30C0
F9F0
F9F0
ENDCHAR
STARTCHAR Adieresis
ENCODING 196
SWIDTH 600 0
DWIDTH 11 0
BBX 12 14 -1 0
BITMAP
0660
0660
0000
0F80
0F80
0380
0780
0480
0CC0
1FC0
3FC0
30C0
F9F0
F9F0
ENDCHAR
STARTCHAR Aring
ENCODING 197
SWIDTH 600 0
DWIDTH 11 0
BBX 12 15 -1 0
BITMAP
01C0
0240
0240
0180
0F80
0F80
0380
0780
0480
0CC0
1FC0
3FC0
30C0
F9F0
F9F0
ENDCHAR
STARTCHAR AE
ENCODING 198
SWIDTH 600 0
DWIDTH 11 0
BBX 14 11 -1 0
BITMAP
07FC
07FC
03CC
06C0
05F0
0DF0
1F80
1F00
3330
FBF0
FBF0
ENDCHAR
STARTCHAR Ccedilla
ENCODING 199
SWIDTH 600 0
DWIDTH 11 0
BBX 11 15 1 -4
BITMAP
0F60
3FE0
70C0
60C0
C000
C000
C000
C000
E180
7F80
3E00
1000
3800
1800
7000
ENDCHAR
STARTCHAR Egrave
ENCODING 200
SWIDTH 600 0
DWIDTH 11 0
BBX 12 15 0 0
BITMAP
0C00
0600
0300
0000
3FF0
3FF0
0C60
1B60
1F60
1E00
3600
30C0
30C0
FFC0
FFC0
ENDCHAR
STARTCHAR Eacute
ENCODING 201
SWIDTH 600 0
DWIDTH 11 0
BBX 12 15 0 0
BITMAP
00C0
0180
0300
0000
3FF0
3FF0
0C60
1B60
1F60
1E00
3600
30C0
30C0
FFC0
FFC0
ENDCHAR
STARTCHAR Ecircumflex
ENCODING 202
SWIDTH 600 0
DWIDTH 11 0
BBX 12 15 0 0
BITMAP
0180
03C0
0660
0000
3FF0
3FF0
0C60
1B60
1F60
1E00
3600
30C0
30C0
FFC0
FFC0
ENDCHAR
STARTCHAR Edieresis
ENCODING 203
SWIDTH 600 0
DWIDTH 11 0
BBX 12 14 0 0
BITMAP
0CC0
0CC0
0000
3FF0
3FF0
0C60
1B60
1F60
1E00
3600
30C0
30C0
FFC0
FFC0
ENDCHAR
STARTCHAR Igrave
ENCODING 204
SWIDTH 600 0
DWIDTH 11 0
BBX 10 15 1 0
BITMAP
1800
0C00
0600
0000
3FC0
3FC0
0600
0600
0C00
0C00
0C00
1800
1800
FF00
FF00
ENDCHAR
STARTCHAR Iacute
ENCODING 205
SWIDTH 600 0
DWIDTH 11 0
BBX 10 15 1 0
BITMAP
0180
0300
0600
0000
3FC0
3FC0
0600
0600
0C00
0C00
0C00
1800
1800
FF00
FF00
ENDCHAR
STARTCHAR Icircumflex
ENCODING 206
SWIDTH 600 0
DWIDTH 11 0
BBX 10 15 1 0
BITMAP
0300
0780
0CC0
0000
3FC0
3FC0
0600
0600
0C00
0C00
0C00
1800
1800
FF00
FF00
ENDCHAR
STARTCHAR Idieresis
ENCODING 207
SWIDTH 600 0
DWIDTH 11 0
BBX 10 14 1 0
BITMAP
18C0
18C0
0000
3FC0
3FC0
0600
0600
0C00
0C00
0C00
1800
1800
FF00
FF00
ENDCHAR
STARTCHAR Eth
ENCODING 208
SWIDTH 600 0
DWIDTH 11 0
BBX 11 11 0 0
BITMAP
3F80
3FC0
1860
1860
7E60
7E60
3060
60C0
61C0
FF80
FE00
ENDCHAR
STARTCHAR Ntilde
ENCODING 209
SWIDTH 600 0
DWIDTH 11 0
BBX 12 14 0 0
BITMAP
0760
0DC0
0000
39F0
39F0
1C60
1C60
3460
36C0
36C0
66C0
6380
FB80
FB80
ENDCHAR
STARTCHAR Ograve
ENCODING 210
SWIDTH 600 0
DWIDTH 11 0
BBX 10 15 1 0
BITMAP
1800
0C00
0600
0000
0F00
3F80
71C0
60C0
C0C0
C0C0
C0C0
C180
E380
7F00
3C00
ENDCHAR
STARTCHAR Oacute
ENCODING 211
SWIDTH 600 0
DWIDTH 11 0
BBX 10 15 1 0
BITMAP
0180
0300
0600
0000
0F00
3F80
71C0
60C0
C0C0
C0C0
C0C0
C180
E380
7F00
3C00
ENDCHAR
STARTCHAR Ocircumflex
ENCODING 212
SWIDTH 600 0
DWIDTH 11 0
BBX 10 15 1 0
BITMAP
0600
0F00
1980
0000
0F00
3F80
71C0
60C0
C0C0
C0C0
C0C0
C180
E380
7F00
3C00
ENDCHAR
STARTCHAR Otilde
ENCODING 213
SWIDTH 600 0
DWIDTH 11 0
BBX 10 14 1 0
BITMAP
0EC0
1B80
0000
0F00
3F80
71C0
60C0
C0C0
C0C0
C0C0
C180
E380
7F00
3C00
ENDCHAR
STARTCHAR Odieresis
ENCODING 214
SWIDTH 600 0
DWIDTH 11 0
BBX 10 14 1 0
BITMAP
1980
1980
0000
0F00
3F80
71C0
60C0
C0C0
C0C0
C0C0
C180
E380
7F00
3C00
ENDCHAR
STARTCHAR multiply
ENCODING 215
SWIDTH 600 0
DWIDTH 11 0
BBX 11 10 0 0
BITMAP
2040
70E0
39C0
1F80
0F00
1E00
3F00
7380
E1C0
4080
ENDCHAR
STARTCHAR Oslash
ENCODING 216
SWIDTH 600 0
DWIDTH 11 0
BBX 14 13 -1 -1
BITMAP
000C
03D8
0FF0
1C70
18F0
31B0
3330
3630
3C60
38E0
3FC0
6F00
C000
ENDCHAR
STARTCHAR Ugrave
ENCODING 217
SWIDTH 600 0
DWIDTH 11 0
BBX 12 15 1 0
BITMAP
0C00
0600
0300
0000
7DF0
7DF0
3060
6060
60C0
60C0
C0C0
C180
E380
7F00
3E00
ENDCHAR
STARTCHAR Uacute
ENCODING 218
SWIDTH 600 0
DWIDTH 11 0
BBX 12 14 1 0
BITMAP
0180
0300
0000
7DF0
7DF0
3060
6060
60C0
60C0
C0C0
C180
E380
7F00
3E00
ENDCHAR
STARTCHAR Ucircumflex
ENCODING 219
SWIDTH 600 0
DWIDTH 11 0
BBX 12 15 1 0
BITMAP
0300
0780
0CC0
0000
7DF0
7DF0
3060
6060
60C0
60C0
C0C0
C180
E380
7F00
3E00
ENDCHAR
STARTCHAR Udieresis
ENCODING 220
SWIDTH 600 0
DWIDTH 11 0
BBX 12 14 1 0
BITMAP
0C60
0C60
0000
7DF0
7DF0
3060
6060
60C0
60C0
C0C0
C180
E380
7F00
3E00
ENDCHAR
STARTCHAR Yacute
ENCODING 221
SWIDTH 600 0
DWIDTH 11 0
BBX 10 15 2 0
BITMAP
0300
0600
0C00
0000
F3C0
F3C0
6180
6300
3600
3C00
1800
3800
3000
FC00
FC00
ENDCHAR
STARTCHAR Thorn
ENCODING 222
SWIDTH 600 0
DWIDTH 11 0
BBX 11 11 0 0
BITMAP
3E00
3C00
1FC0
1FE0
3060
3060
30E0
7FC0
7F80
F000
F800
ENDCHAR
STARTCHAR germandbls
ENCODING 223
SWIDTH 600 0
DWIDTH 11 0
BBX 10 12 0 0
BITMAP
0780
1FC0
18C0
18C0
3180
3380
31C0
30C0
60C0
6980
EF80
E700
ENDCHAR
STARTCHAR agrave
ENCODING 224
SWIDTH 600 0
DWIDTH 11 0
BBX 10 13 0 0
BITMAP
1800
0C00
0600
0000
0F80
3FC0
30C0
00C0
3FC0
FF80
C180
FFC0
7DC0
ENDCHAR
STARTCHAR aacute
ENCODING 225
SWIDTH 600 0
DWIDTH 11 0
BBX 10 13 0 0
BITMAP
00C0
0180
0300
0000
0F80
3FC0
30C0
00C0
3FC0
FF80
C180
FFC0
7DC0
ENDCHAR
STARTCHAR acircumflex
ENCODING 226
SWIDTH 600 0
DWIDTH 11 0
BBX 10 13 0 0
BITMAP
0300
0780
0CC0
0000
0F80
3FC0
30C0
00C0
3FC0
FF80
C180
FFC0
7DC0
ENDCHAR
STARTCHAR atilde
ENCODING 227
SWIDTH 600 0
DWIDTH 11 0
BBX 10 12 0 0
BITMAP
0EC0
1B80
0000
0F80
3FC0
30C0
00C0
3FC0
FF80
C180
FFC0
7DC0
ENDCHAR
STARTCHAR adieresis
ENCODING 228
SWIDTH 600 0
DWIDTH 11 0
BBX 10 12 0 0
BITMAP
0CC0
0CC0
0000
0F80
3FC0
30C0
00C0
3FC0
FF80
C180
FFC0
7DC0
ENDCHAR
STARTCHAR aring
ENCODING 229
SWIDTH 600 0
DWIDTH 11 0
BBX 10 14 0 0
BITMAP
0380
0480
0480
0700
0000
1F80
3FC0
30C0
00C0
3FC0
FF80
C180
FFC0
7DC0
ENDCHAR
STARTCHAR ae
ENCODING 230
SWIDTH 600 0
DWIDTH 11 0
BBX 11 9 0 0
BITMAP
3DC0
7FE0
6660
0660
3FE0
FFC0
CC00
FFC0
77C0
ENDCHAR
STARTCHAR ccedilla
ENCODING 231
SWIDTH 600 0
DWIDTH 11 0
BBX 11 13 0 -4
BITMAP
0F60
3FE0
70C0
60C0
C000
C000
E0C0
7FC0
3F00
0800
1C00
0C00
3800
ENDCHAR
STARTCHAR egrave
ENCODING 232
SWIDTH 600 0
DWIDTH 11 0
BBX 11 13 0 0
BITMAP
0C00
0600
0300
0000
0F80
3FC0
70E0
6060
FFE0
FFE0
C000
7F80
3F80
ENDCHAR
STARTCHAR eacute
ENCODING 233
SWIDTH 600 0
DWIDTH 11 0
BBX 11 13 0 0
BITMAP
00C0
0180
0300
0000
0F80
3FC0
70E0
6060
FFE0
FFE0
C000
7F80
3F80
ENDCHAR
STARTCHAR ecircumflex
ENCODING 234
SWIDTH 600 0
DWIDTH 11 0
BBX 11 13 0 0
BITMAP
0300
0780
0CC0
0000
0F80
3FC0
70E0
6060
FFE0
FFE0
C000
7F80
3F80
ENDCHAR
STARTCHAR edieresis
ENCODING 235
SWIDTH 600 0
DWIDTH 11 0
BBX 11 12 0 0
BITMAP
0CC0
0CC0
0000
0F80
3FC0
70E0
6060
FFE0
FFE0
C000
7F80
3F80
ENDCHAR
STARTCHAR igrave
ENCODING 236
SWIDTH 600 0
DWIDTH 11 0
BBX 8 13 1 0
BITMAP
30
18
0C
00
3C
3C
0C
0C
0C
18
18
FF
FF
ENDCHAR
STARTCHAR iacute
ENCODING 237
SWIDTH 600 0
DWIDTH 11 0
BBX 8 13 1 0
BITMAP
03
06
0C
00
3C
3C
0C
0C
0C
18
18
FF
FF
ENDCHAR
STARTCHAR icircumflex
ENCODING 238
SWIDTH 600 0
DWIDTH 11 0
BBX 8 13 1 0
BITMAP
0C
1E
33
00
3C
3C
0C
0C
0C
18
18
FF
FF
ENDCHAR
STARTCHAR idieresis
ENCODING 239
SWIDTH 600 0
DWIDTH 11 0
BBX 8 12 1 0
BITMAP
33
33
00
3C
3C
0C
0C
0C
18
18
FF
FF
ENDCHAR
STARTCHAR eth
ENCODING 240
SWIDTH 600 0
DWIDTH 11 0
BBX 11 13 0 0
BITMAP
3860
7FC0
0F80
39C0
60C0
1F60
7FE0
60E0
C060
C0C0
E1C0
7F80
3E00
ENDCHAR
STARTCHAR ntilde
ENCODING 241
SWIDTH 600 0
DWIDTH 11 0
BBX 11 12 0 0
BITMAP
0760
0DC0
0000
3B80
7FC0
38C0
30C0
30C0
6180
6180
F3C0
F3C0
ENDCHAR
STARTCHAR ograve
ENCODING 242
SWIDTH 600 0
DWIDTH 11 0
BBX 11 13 0 0
BITMAP
0C00
0600
0300
0000
0F80
3FC0
70E0
6060
C060
C0C0
E1C0
7F80
3E00
ENDCHAR
STARTCHAR oacute
ENCODING 243
SWIDTH 600 0
DWIDTH 11 0
BBX 11 13 0 0
BITMAP
00C0
0180
0300
0000
0F80
3FC0
70E0
6060
C060
C0C0
E1C0
7F80
3E00
ENDCHAR
STARTCHAR ocircumflex
ENCODING 244
SWIDTH 600 0
DWIDTH 11 0
BBX 11 13 0 0
BITMAP
0300
0780
0CC0
0000
0F80
3FC0
70E0
6060
C060
C0C0
E1C0
7F80
3E00
ENDCHAR
STARTCHAR otilde
ENCODING 245
SWIDTH 600 0
DWIDTH 11 0
BBX 11 12 0 0
BITMAP
0EC0
1B80
0000
0F80
3FC0
70E0
6060
C060
C0C0
E1C0
7F80
3E00
ENDCHAR
STARTCHAR odieresis
ENCODING 246
SWIDTH 600 0
DWIDTH 11 0
BBX 11 12 0 0
BITMAP
0CC0
0CC0
0000
0F80
3FC0
70E0
6060
C060
C0C0
E1C0
7F80
3E00
ENDCHAR
STARTCHAR divide
ENCODING 247
SWIDTH 600 0
DWIDTH 11 0
BBX 8 10 1 0
BITMAP
0C
0C
00
00
FF
FF
00
00
30
30
ENDCHAR
STARTCHAR oslash
ENCODING 248
SWIDTH 600 0
DWIDTH 11 0
BBX 12 11 -1 -1
BITMAP
0030
07E0
1FE0
39F0
3330
6630
6C60
78E0
3FC0
7F00
C000
ENDCHAR
STARTCHAR ugrave
ENCODING 249
SWIDTH 600 0
DWIDTH 11 0
BBX 9 13 1 0
BITMAP
3000
1800
0C00
0000
E380
E380
6180
6180
C300
C300
C700
FF80
7B80
ENDCHAR
STARTCHAR uacute
ENCODING 250
SWIDTH 600 0
DWIDTH 11 0
BBX 9 13 1 0
BITMAP
0300
0600
0C00
0000
E380
E380
6180
6180
C300
C300
C700
FF80
7B80
ENDCHAR
STARTCHAR ucircumflex
ENCODING 251
SWIDTH 600 0
DWIDTH 11 0
BBX 9 13 1 0
BITMAP
0C00
1E00
3300
0000
E380
E380
6180
6180
C300
C300
C700
FF80
7B80
ENDCHAR
STARTCHAR udieresis
ENCODING 252
SWIDTH 600 0
DWIDTH 11 0
BBX 9 12 1 0
BITMAP
3300
3300
0000
E380
E380
6180
6180
C300
C300
C700
FF80
7B80
ENDCHAR
STARTCHAR yacute
ENCODING 253
SWIDTH 600 0
DWIDTH 11 0
BBX 12 17 -1 -4
BITMAP
0060
00C0
0180
0000
3CF0
3CF0
1860
0CC0
0D80
0700
0600
0600
0C00
1800
3000
F800
F800
ENDCHAR
STARTCHAR thorn
ENCODING 254
SWIDTH 600 0
DWIDTH 11 0
BBX 12 16 -1 -4
BITMAP
1C00
1C00
0C00
1BC0
1FE0
1C70
1830
3030
3030
3860
3FE0
7780
6000
6000
F800
F800
ENDCHAR
STARTCHAR ydieresis
ENCODING 255
SWIDTH 600 0
DWIDTH 11 0
BBX 12 16 -1 -4
BITMAP
0CC0
0CC0
0000
3CF0
3CF0
1860
0CC0
0D80
0700
0600
0600
0C00
1800
3000
F800
F800
ENDCHAR
STARTCHAR Amacron
ENCODING 256
SWIDTH 600 0
DWIDTH 11 0
BBX 12 13 -1 0
BITMAP
0F80
0000
0F80
0F80
0380
0780
0CC0
0CC0
1FC0
3FC0
30C0
F9F0
F9F0
ENDCHAR
STARTCHAR amacron
ENCODING 257
SWIDTH 600 0
DWIDTH 11 0
BBX 10 11 0 0
BITMAP
1F00
0000
0F80
3FC0
30C0
00C0
3FC0
FF80
C180
FFC0
7DC0
ENDCHAR
STARTCHAR Abreve
ENCODING 258
SWIDTH 600 0
DWIDTH 11 0
BBX 12 14 -1 0
BITMAP
1980
0F00
0000
0F80
0F80
0380
0780
0CC0
0CC0
1FC0
3FC0
30C0
F9F0
F9F0
ENDCHAR
STARTCHAR abreve
ENCODING 259
SWIDTH 600 0
DWIDTH 11 0
BBX 10 12 0 0
BITMAP
1980
0F00
0000
0F80
3FC0
30C0
00C0
3FC0
FF80
C180
FFC0
7DC0
ENDCHAR
STARTCHAR Aogonek
ENCODING 260
SWIDTH 600 0
DWIDTH 11 0
BBX 12 15 -1 -4
BITMAP
0F80
0F80
0380
0780
0CC0
0CC0
1FC0
3FC0
30C0
F9F0
F9F0
0600
0C00
0C00
0700
ENDCHAR
STARTCHAR aogonek
ENCODING 261
SWIDTH 600 0
DWIDTH 11 0
BBX 10 13 0 -4
BITMAP
0F80
3FC0
30C0
00C0
3FC0
FF80
C180
FFC0
7DC0
0C00
1800
1800
0E00
ENDCHAR
STARTCHAR Cacute
ENCODING 262
SWIDTH 600 0
DWIDTH 11 0
BBX 11 15 1 0
BITMAP
0180
0300
0600
0000
0F60
3FE0
70C0
60C0
C000
C000
C000
C000
E180
7F80
3E00
ENDCHAR
STARTCHAR cacute
ENCODING 263
SWIDTH 600 0
DWIDTH 11 0
BBX 11 13 0 0
BITMAP
0180
0300
0600
0000
0F60
3FE0
70C0
60C0
C000
C000
E0C0
7FC0
3F00
ENDCHAR
STARTCHAR Ccircumflex
ENCODING 264
SWIDTH 600 0
DWIDTH 11 0
BBX 11 15 1 0
BITMAP
0600
0F00
1980
0000
0F60
3FE0
70C0
60C0
C000
C000
C000
C000
E180
7F80
3E00
ENDCHAR
STARTCHAR ccircumflex
ENCODING 265
SWIDTH 600 0
DWIDTH 11 0
BBX 11 13 0 0
BITMAP
0600
0F00
1980
0000
0F60
3FE0
70C0
60C0
C000
C000
E0C0
7FC0
3F00
ENDCHAR
STARTCHAR Cdotaccent
ENCODING 266
SWIDTH 600 0
DWIDTH 11 0
BBX 11 14 1 0
BITMAP
0600
0600
0000
0F60
3FE0
70C0
60C0
C000
C000
C000
C000
E180
7F80
3E00
ENDCHAR
STARTCHAR cdotaccent
ENCODING 267
SWIDTH 600 0
DWIDTH 11 0
BBX 11 12 0 0
BITMAP
0600
0600
0000
0F60
3FE0
70C0
60C0
C000
C000
E0C0
7FC0
3F00
ENDCHAR
STARTCHAR Ccaron
ENCODING 268
SWIDTH 600 0
DWIDTH 11 0
BBX 11 15 1 0
BITMAP
1980
1F00
0E00
0000
0F60
3FE0
70C0
60C0
C000
C000
C000
C000
E180
7F80
3E00
ENDCHAR
STARTCHAR ccaron
ENCODING 269
SWIDTH 600 0
DWIDTH 11 0
BBX 11 13 0 0
BITMAP
1980
1F00
0E00
0000
0F60
3FE0
70C0
60C0
C000
C000
E0C0
7FC0
3F00
ENDCHAR
STARTCHAR Dcaron
ENCODING 270
SWIDTH 600 0
DWIDTH 11 0
BBX 11 15 0 0
BITMAP
1980
1F00
0E00
0000
3F80
3FC0
1860
1860
3060
3060
3060
60C0
61C0
FF80
FE00
ENDCHAR
STARTCHAR dcaron
ENCODING 271
SWIDTH 600 0
DWIDTH 11 0
BBX 11 16 0 0
BITMAP
0660
07C0
0380
0000
00E0
00E0
0060
0F60
3FC0
71C0
60C0
C0C0
C180
E380
7FC0
3DC0
ENDCHAR
STARTCHAR Dcroat
ENCODING 272
SWIDTH 600 0
DWIDTH 11 0
BBX 11 11 0 0
BITMAP
3F80
3FC0
1860
1860
7E60
7E60
3060
60C0
61C0
FF80
FE00
ENDCHAR
STARTCHAR dcroat
ENCODING 273
SWIDTH 600 0
DWIDTH 11 0
BBX 13 12 0 0
BITMAP
00E0
1FF8
1FF8
0F60
3FC0
71C0
60C0
C0C0
C180
E380
7FC0
3DC0
ENDCHAR
STARTCHAR Emacron
ENCODING 274
SWIDTH 600 0
DWIDTH 11 0
BBX 12 13 0 0
BITMAP
0F80
0000
3FF0
3FF0
0C60
1B60
1F00
1F00
3300
30C0
30C0
FFC0
FFC0
ENDCHAR
STARTCHAR emacron
ENCODING 275
SWIDTH 600 0
DWIDTH 11 0
BBX 11 11 0 0
BITMAP
1F00
0000
0F80
3FC0
70E0
6060
FFE0
FFE0
C000
7F80
3F80
ENDCHAR
STARTCHAR Ebreve
ENCODING 276
SWIDTH 600 0
DWIDTH 11 0
BBX 12 14 0 0
BITMAP
0CC0
0780
0000
3FF0
3FF0
0C60
1B60
1F00
1F00
3300
30C0
30C0
FFC0
FFC0
ENDCHAR
STARTCHAR ebreve
ENCODING 277
SWIDTH 600 0
DWIDTH 11 0
BBX 11 12 0 0
BITMAP
1980
0F00
0000
0F80
3FC0
70E0
6060
FFE0
FFE0
C000
7F80
3F80
ENDCHAR
STARTCHAR Edotaccent
ENCODING 278
SWIDTH 600 0
DWIDTH 11 0
BBX 12 14 0 0
BITMAP
0300
0300
0000
3FF0
3FF0
0C60
1B60
1F00
1F00
3300
30C0
30C0
FFC0
FFC0
ENDCHAR
STARTCHAR edotaccent
ENCODING 279
SWIDTH 600 0
DWIDTH 11 0
BBX 11 12 0 0
BITMAP
0600
0600
0000
0F80
3FC0
70E0
6060
FFE0
FFE0
C000
7F80
3F80
ENDCHAR
STARTCHAR Eogonek
ENCODING 280
SWIDTH 600 0
DWIDTH 11 0
BBX 12 15 0 -4
BITMAP
3FF0
3FF0
0C60
1B60
1F00
1F00
3300
30C0
30C0
FFC0
FFC0
0600
0C00
0C00
0700
ENDCHAR
STARTCHAR eogonek
ENCODING 281
SWIDTH 600 0
DWIDTH 11 0
BBX 11 13 0 -4
BITMAP
0F80
3FC0
70E0
6060
FFE0
FFE0
C000
7F80
3F80
0C00
1800
1800
0E00
ENDCHAR
STARTCHAR Ecaron
ENCODING 282
SWIDTH 600 0
DWIDTH 11 0
BBX 12 15 0 0
BITMAP
0CC0
0F80
0700
0000
3FF0
3FF0
0C60
1B60
1F00
1F00
3300
30C0
30C0
FFC0
FFC0
ENDCHAR
STARTCHAR ecaron
ENCODING 283
SWIDTH 600 0
DWIDTH 11 0
BBX 11 13 0 0
BITMAP
1980
1F00
0E00
0000
0F80
3FC0
70E0
6060
FFE0
FFE0
C000
7F80
3F80
ENDCHAR
STARTCHAR Gcircumflex
ENCODING 284
SWIDTH 600 0
DWIDTH 11 0
BBX 11 15 1 0
BITMAP
0600
0F00
1980
0000
0F60
3FE0
70C0
60C0
C000
C000
C7C0
C7C0
E180
7F80
3E00
ENDCHAR
STARTCHAR gcircumflex
ENCODING 285
SWIDTH 600 0
DWIDTH 11 0
BBX 12 17 0 -4
BITMAP
0600
0F00
1980
0000
0F70
3FE0
71C0
60C0
C0C0
C1C0
E380
7F80
3D80
0300
0700
7E00
7C00
ENDCHAR
STARTCHAR Gbreve
ENCODING 286
SWIDTH 600 0
DWIDTH 11 0
BBX 11 14 1 0
BITMAP
1980
0F00
0000
0F60
3FE0
70C0
60C0
C000
C000
C7C0
C7C0
E180
7F80
3E00
ENDCHAR
STARTCHAR gbreve
ENCODING 287
SWIDTH 600 0
DWIDTH 11 0
BBX 12 16 0 -4
BITMAP
1980
0F00
0000
0F70
3FE0
71C0
60C0
C0C0
C1C0
E380
7F80
3D80
0300
0700
7E00
7C00
ENDCHAR
STARTCHAR Gdotaccent
ENCODING 288
SWIDTH 600 0
DWIDTH 11 0
BBX 11 14 1 0
BITMAP
0600
0600
0000
0F60
3FE0
70C0
60C0
C000
C000
C7C0
C7C0
E180
7F80
3E00
ENDCHAR
STARTCHAR gdotaccent
ENCODING 289
SWIDTH 600 0
DWIDTH 11 0
BBX 12 16 0 -4
BITMAP
0600
0600
0000
0F70
3FE0
71C0
60C0
C0C0
C1C0
E380
7F80
3D80
0300
0700
7E00
7C00
ENDCHAR
STARTCHAR Gcommaaccent
ENCODING 290
SWIDTH 600 0
DWIDTH 11 0
BBX 11 17 1 -6
BITMAP
0F60
3FE0
70C0
60C0
C000
C000
C7C0
C7C0
E180
7F80
3E00
0000
0C00
1C00
1800
3000
2000
ENDCHAR
STARTCHAR gcommaaccent
ENCODING 291
SWIDTH 600 0
DWIDTH 11 0
BBX 12 19 0 -4
BITMAP
0C00
0C00
0600
0600
0200
0000
0F70
3FE0
71C0
60C0
C0C0
C1C0
E380
7F80
3D80
0300
0700
7E00
7C00
ENDCHAR
STARTCHAR Hcircumflex
ENCODING 292
SWIDTH 600 0
DWIDTH 11 0
BBX 12 15 0 0
BITMAP
0300
0780
0CC0
0000
3CF0
3CF0
1860
1860
3FC0
3FC0
30C0
6180
6180
F3C0
F3C0
ENDCHAR
STARTCHAR hcircumflex
ENCODING 293
SWIDTH 600 0
DWIDTH 11 0
BBX 10 16 0 0
BITMAP
0C00
1E00
3300
0000
3800
3800
1800
3780
3FC0
38C0
30C0
60C0
6180
6180
F3C0
F3C0
ENDCHAR
STARTCHAR Hbar
ENCODING 294
SWIDTH 600 0
DWIDTH 11 0
BBX 12 11 0 0
BITMAP
3CF0
FFF0
FFF0
1860
3FC0
3FC0
30C0
6180
6180
F3C0
F3C0
ENDCHAR
STARTCHAR hbar
ENCODING 295
SWIDTH 600 0
DWIDTH 11 0
BBX 12 12 -2 0
BITMAP
0E00
FFC0
FFC0
0DE0
0FF0
0E30
0C30
1830
1860
1860
3CF0
3CF0
ENDCHAR
STARTCHAR Itilde
ENCODING 296
SWIDTH 600 0
DWIDTH 11 0
BBX 10 14 1 0
BITMAP
1D80
3700
0000
3FC0
3FC0
0600
0600
0C00
0C00
0C00
1800
1800
FF00
FF00
ENDCHAR
STARTCHAR itilde
ENCODING 297
SWIDTH 600 0
DWIDTH 11 0
BBX 8 12 1 0
BITMAP
3B
6E
00
3C
3C
0C
0C
0C
18
18
FF
FF
ENDCHAR
STARTCHAR Imacron
ENCODING 298
SWIDTH 600 0
DWIDTH 11 0
BBX 10 13 1 0
BITMAP
1F00
0000
3FC0
3FC0
0600
0600
0C00
0C00
0C00
1800
1800
FF00
FF00
ENDCHAR
STARTCHAR imacron
ENCODING 299
SWIDTH 600 0
DWIDTH 11 0
BBX 8 11 1 0
BITMAP
3E
00
3C
3C
0C
0C
0C
18
18
FF
FF
ENDCHAR
STARTCHAR Ibreve
ENCODING 300
SWIDTH 600 0
DWIDTH 11 0
BBX 10 14 1 0
BITMAP
1980
0F00
0000
3FC0
3FC0
0600
0600
0C00
0C00
0C00
1800
1800
FF00
FF00
ENDCHAR
STARTCHAR ibreve
ENCODING 301
SWIDTH 600 0
DWIDTH 11 0
BBX 8 12 1 0
BITMAP
66
3C
00
3C
3C
0C
0C
0C
18
18
FF
FF
ENDCHAR
STARTCHAR Iogonek
ENCODING 302
SWIDTH 600 0
DWIDTH 11 0
BBX 10 15 1 -4
BITMAP
3FC0
3FC0
0600
0600
0C00
0C00
0C00
1800
1800
FF00
FF00
0C00
1800
1800
0E00
ENDCHAR
STARTCHAR iogonek
ENCODING 303
SWIDTH 600 0
DWIDTH 11 0
BBX 8 16 1 -4
BITMAP
06
06
00
3C
3C
0C
0C
0C
18
18
FF
FF
18
30
30
1C
ENDCHAR
STARTCHAR Idotaccent
ENCODING 304
SWIDTH 600 0
DWIDTH 11 0
BBX 10 14 1 0
BITMAP
0600
0600
0000
3FC0
3FC0
0600
0600
0C00
0C00
0C00
1800
1800
FF00
FF00
ENDCHAR
STARTCHAR dotlessi
ENCODING 305
SWIDTH 600 0
DWIDTH 11 0
BBX 8 9 1 0
BITMAP
3C
3C
0C
0C
0C
18
18
FF
FF
ENDCHAR
STARTCHAR IJ
ENCODING 306
SWIDTH 600 0
DWIDTH 11 0
BBX 15 11 1 0
BITMAP
3FFE
3FFE
0618
0618
0C30
0C30
0C30
1C60
1860
FFC0
FF80
ENDCHAR
STARTCHAR ij
ENCODING 307
SWIDTH 600 0
DWIDTH 11 0
BBX 11 16 1 -4
BITMAP
06C0
06C0
0000
3FE0
3FE0
0CC0
0CC0
0CC0
1980
1980
FF80
FF80
0300
0300
7E00
7C00
ENDCHAR
STARTCHAR Jcircumflex
ENCODING 308
SWIDTH 600 0
DWIDTH 11 0
BBX 12 15 0 0
BITMAP
0180
03C0
0660
0000
07F0
07F0
00C0
00C0
0180
0180
6180
6300
C300
FE00
7C00
ENDCHAR
STARTCHAR jcircumflex
ENCODING 309
SWIDTH 600 0
DWIDTH 11 0
BBX 10 17 0 -4
BITMAP
0600
0F00
1980
0000
3FC0
3FC0
0180
0180
0180
0300
0300
0300
0300
0600
0600
FC00
F800
ENDCHAR
STARTCHAR Kcommaaccent
ENCODING 310
SWIDTH 600 0
DWIDTH 11 0
BBX 12 17 0 -6
BITMAP
3DF0
3DF0
18C0
1980
3300
3E00
3E00
6700
6380
F9E0
F9E0
0000
0600
0E00
0C00
1800
1000
ENDCHAR
STARTCHAR kcommaaccent
ENCODING 311
SWIDTH 600 0
DWIDTH 11 0
BBX 11 18 0 -6
BITMAP
3800
3800
1800
19E0
33E0
3700
3E00
3C00
6E00
6700
E3C0
E3C0
0000
0600
0E00
0C00
1800
1000
ENDCHAR
STARTCHAR kgreenlandic
ENCODING 312
SWIDTH 600 0
DWIDTH 11 0
BBX 11 9 0 0
BITMAP
19E0
33E0
3700
3E00
3C00
6E00
6700
E3C0
E3C0
ENDCHAR
STARTCHAR Lacute
ENCODING 313
SWIDTH 600 0
DWIDTH 11 0
BBX 11 15 0 0
BITMAP
0300
0600
0C00
0000
3F00
3F00
0C00
0C00
1800
1800
1860
3060
30C0
FFC0
FF80
ENDCHAR
STARTCHAR lacute
ENCODING 314
SWIDTH 600 0
DWIDTH 11 0
BBX 8 16 1 0
BITMAP
03
06
0C
00
1E
1E
06
06
0C
0C
0C
18
18
18
FF
FF
ENDCHAR
STARTCHAR Lcommaaccent
ENCODING 315
SWIDTH 600 0
DWIDTH 11 0
BBX 11 17 0 -6
BITMAP
3F00
3F00
0C00
0C00
1800
1800
1860
3060
30C0
FFC0
FF80
0000
0600
0E00
0C00
1800
1000
ENDCHAR
STARTCHAR lcommaaccent
ENCODING 316
SWIDTH 600 0
DWIDTH 11 0
BBX 8 18 1 -6
BITMAP
1E
1E
06
06
0C
0C
0C
18
18
18
FF
FF
00
0C
1C
18
30
20
ENDCHAR
STARTCHAR Lcaron
ENCODING 317
SWIDTH 600 0
DWIDTH 11 0
BBX 11 15 0 0
BITMAP
1980
1F00
0E00
0000
3F00
3F00
0C00
0C00
1800
1800
1860
3060
30C0
FFC0
FF80
ENDCHAR
STARTCHAR lcaron
ENCODING 318
SWIDTH 600 0
DWIDTH 11 0
BBX 8 16 1 0
BITMAP
33
3E
1C
00
1E
1E
06
06
0C
0C
0C
18
18
18
FF
FF
ENDCHAR
STARTCHAR Ldot
ENCODING 319
SWIDTH 600 0
DWIDTH 11 0
BBX 11 11 0 0
BITMAP
3F00
3F00
0C00
0C00
1B00
1B00
1860
3060
30C0
FFC0
FF80
ENDCHAR
STARTCHAR ldot
ENCODING 320
SWIDTH 600 0
DWIDTH 11 0
BBX 9 12 1 0
BITMAP
1E00
1E00
0600
0600
0C00
0D80
0D80
1800
1800
1800
FF00
FF00
ENDCHAR
STARTCHAR Lslash
ENCODING 321
SWIDTH 600 0
DWIDTH 11 0
BBX 11 11 0 0
BITMAP
3F00
3F00
0C00
0F00
1E00
3C00
7860
3060
30C0
FFC0
FF80
ENDCHAR
STARTCHAR lslash
ENCODING 322
SWIDTH 600 0
DWIDTH 11 0
BBX 8 12 1 0
BITMAP
1E
1E
06
06
0C
0F
3E
78
18
18
FF
FF
ENDCHAR
STARTCHAR Nacute
ENCODING 323
SWIDTH 600 0
DWIDTH 11 0
BBX 12 15 0 0
BITMAP
0180
0300
0600
0000
39F0
39F0
1C60
1C60
34C0
36C0
36C0
6380
6380
FB80
FB80
ENDCHAR
STARTCHAR nacute
ENCODING 324
SWIDTH 600 0
DWIDTH 11 0
BBX 10 13 0 0
BITMAP
0300
0600
0C00
0000
7B80
7FC0
38C0
30C0
30C0
6180
6180
F3C0
F3C0
ENDCHAR
STARTCHAR Ncommaaccent
ENCODING 325
SWIDTH 600 0
DWIDTH 11 0
BBX 12 17 0 -6
BITMAP
39F0
39F0
1C60
1C60
34C0
36C0
36C0
6380
6380
FB80
FB80
0000
0600
0E00
0C00
1800
1000
ENDCHAR
STARTCHAR ncommaaccent
ENCODING 326
SWIDTH 600 0
DWIDTH 11 0
BBX 10 15 0 -6
BITMAP
7B80
7FC0
38C0
30C0
30C0
6180
6180
F3C0
F3C0
0000
0600
0E00
0C00
1800
1000
ENDCHAR
STARTCHAR Ncaron
ENCODING 327
SWIDTH 600 0
DWIDTH 11 0
BBX 12 15 0 0
BITMAP
0CC0
0F80
0700
0000
39F0
39F0
1C60
1C60
34C0
36C0
36C0
6380
6380
FB80
FB80
ENDCHAR
STARTCHAR ncaron
ENCODING 328
SWIDTH 600 0
DWIDTH 11 0
BBX 10 13 0 0
BITMAP
1980
1F00
0E00
0000
7B80
7FC0
38C0
30C0
30C0
6180
6180
F3C0
F3C0
ENDCHAR
STARTCHAR napostrophe
ENCODING 329
SWIDTH 600 0
DWIDTH 11 0
BBX 13 12 -3 0
BITMAP
3000
7000
6000
CF70
8FF8
0718
0618
0618
0C30
0C30
1E78
1E78
ENDCHAR
STARTCHAR Eng
ENCODING 330
SWIDTH 600 0
DWIDTH 11 0
BBX 12 15 0 -4
BITMAP
39F0
39F0
1C60
1C60
34C0
36C0
36C0
6380
6380
FB80
FB80
0300
0300
7E00
7C00
ENDCHAR
STARTCHAR eng
ENCODING 331
SWIDTH 600 0
DWIDTH 11 0
BBX 10 13 0 -4
BITMAP
7B80
7FC0
38C0
30C0
30C0
6180
6180
F180
F180
0300
0300
7E00
7C00
ENDCHAR
STARTCHAR Omacron
ENCODING 332
SWIDTH 600 0
DWIDTH 11 0
BBX 10 13 1 0
BITMAP
1F00
0000
0F00
3F80
71C0
60C0
C0C0
C0C0
C0C0
C180
E380
7F00
3C00
ENDCHAR
STARTCHAR omacron
ENCODING 333
SWIDTH 600 0
DWIDTH 11 0
BBX 11 11 0 0
BITMAP
1F00
0000
0F80
3FC0
70E0
6060
C060
C0C0
E1C0
7F80
3E00
ENDCHAR
STARTCHAR Obreve
ENCODING 334
SWIDTH 600 0
DWIDTH 11 0
BBX 10 14 1 0
BITMAP
3300
1E00
0000
0F00
3F80
71C0
60C0
C0C0
C0C0
C0C0
C180
E380
7F00
3C00
ENDCHAR
STARTCHAR obreve
ENCODING 335
SWIDTH 600 0
DWIDTH 11 0
BBX 11 12 0 0
BITMAP
1980
0F00
0000
0F80
3FC0
70E0
6060
C060
C0C0
E1C0
7F80
3E00
ENDCHAR
STARTCHAR Ohungarumlaut
ENCODING 336
SWIDTH 600 0
DWIDTH 11 0
BBX 10 15 1 0
BITMAP
06C0
0D80
1B00
0000
0F00
3F80
71C0
60C0
C0C0
C0C0
C0C0
C180
E380
7F00
3C00
ENDCHAR
STARTCHAR ohungarumlaut
ENCODING 337
SWIDTH 600 0
DWIDTH 11 0
BBX 11 13 0 0
BITMAP
06C0
0D80
1B00
0000
0F80
3FC0
70E0
6060
C060
C0C0
E1C0
7F80
3E00
ENDCHAR
STARTCHAR OE
ENCODING 338
SWIDTH 600 0
DWIDTH 11 0
BBX 13 11 0 0
BITMAP
0FF8
3FF8
3198
6180
63E0
C3E0
C300
C600
C660
FFE0
7FE0
ENDCHAR
STARTCHAR oe
ENCODING 339
SWIDTH 600 0
DWIDTH 11 0
BBX 11 9 0 0
BITMAP
1DC0
7FE0
6660
C660
CFE0
CFC0
CC00
FFC0
77C0
ENDCHAR
STARTCHAR Racute
ENCODING 340
SWIDTH 600 0
DWIDTH 11 0
BBX 12 15 0 0
BITMAP
0180
0300
0600
0000
3FC0
3FE0
1860
1860
30E0
3FC0
3F80
6380
61C0
FCF0
FCF0
ENDCHAR
STARTCHAR racute
ENCODING 341
SWIDTH 600 0
DWIDTH 11 0
BBX 11 13 0 0
BITMAP
0300
0600
0C00
0000
7DC0
7FE0
1C60
1800
1800
3000
3000
FF00
FF00
ENDCHAR
STARTCHAR Rcommaaccent
ENCODING 342
SWIDTH 600 0
DWIDTH 11 0
BBX 12 17 0 -6
BITMAP
3FC0
3FE0
1860
1860
30E0
3FC0
3F80
6380
61C0
FCF0
FCF0
0000
0600
0E00
0C00
1800
1000
ENDCHAR
STARTCHAR rcommaaccent
ENCODING 343
SWIDTH 600 0
DWIDTH 11 0
BBX 11 15 0 -6
BITMAP
7DC0
7FE0
1C60
1800
1800
3000
3000
FF00
FF00
0000
0C00
1C00
1800
3000
2000
ENDCHAR
STARTCHAR Rcaron
ENCODING 344
SWIDTH 600 0
DWIDTH 11 0
BBX 12 15 0 0
BITMAP
0CC0
0F80
0700
0000
3FC0
3FE0
1860
1860
30E0
3FC0
3F80
6380
61C0
FCF0
FCF0
ENDCHAR
STARTCHAR rcaron
ENCODING 345
SWIDTH 600 0
DWIDTH 11 0
BBX 11 13 0 0
BITMAP
1980
1F00
0E00
0000
7DC0
7FE0
1C60
1800
1800
3000
3000
FF00
FF00
ENDCHAR
STARTCHAR Sacute
ENCODING 346
SWIDTH 600 0
DWIDTH 11 0
BBX 12 15 0 0
BITMAP
00C0
0180
0300
0000
07B0
1FF0
3860
3860
1E00
0F80
03C0
60C0
61C0
FF80
EF00
ENDCHAR
STARTCHAR sacute
ENCODING 347
SWIDTH 600 0
DWIDTH 11 0
BBX 11 13 0 0
BITMAP
0180
0300
0600
0000
0F60
1FE0
30C0
3C00
1F00
6780
6180
FF80
DF00
ENDCHAR
STARTCHAR Scircumflex
ENCODING 348
SWIDTH 600 0
DWIDTH 11 0
BBX 12 15 0 0
BITMAP
0300
0780
0CC0
0000
07B0
1FF0
3860
3860
1E00
0F80
03C0
60C0
61C0
FF80
EF00
ENDCHAR
STARTCHAR scircumflex
ENCODING 349
SWIDTH 600 0
DWIDTH 11 0
BBX 11 13 0 0
BITMAP
0600
0F00
1980
0000
0F60
1FE0
30C0
3C00
1F00
6780
6180
FF80
DF00
ENDCHAR
STARTCHAR Scedilla
ENCODING 350
SWIDTH 600 0
DWIDTH 11 0
BBX 12 16 0 -5
BITMAP
07B0
1FF0
3860
3860
1E00
0F80
03C0
60C0
61C0
FF80
EF00
0400
0E00
0600
0600
1C00
ENDCHAR
STARTCHAR scedilla
ENCODING 351
SWIDTH 600 0
DWIDTH 11 0
BBX 11 14 0 -5
BITMAP
0F60
1FE0
30C0
3C00
1F00
6780
6180
FF80
DF00
0400
0E00
0600
0600
1C00
ENDCHAR
STARTCHAR Scaron
ENCODING 352
SWIDTH 600 0
DWIDTH 11 0
BBX 11 14 0 0
BITMAP
1980
1F00
0E00
0000
0F60
3FE0
70C0
70C0
3C00
0F00
6380
6380
FF00
DE00
ENDCHAR
STARTCHAR scaron
ENCODING 353
SWIDTH 600 0
DWIDTH 11 0
BBX 11 13 0 0
BITMAP
0CC0
0F80
0700
0000
0F60
1FE0
30C0
3C00
0F00
6380
6180
FF80
DF00
ENDCHAR
STARTCHAR Tcommaaccent
ENCODING 354
SWIDTH 600 0
DWIDTH 11 0
BBX 11 16 1 -5
BITMAP
7FE0
7FE0
6660
C6C0
CCC0
0C00
0C00
1800
1800
7E00
7E00
0800
1C00
0C00
0C00
3800
ENDCHAR
STARTCHAR tcommaaccent
ENCODING 355
SWIDTH 600 0
DWIDTH 11 0
BBX 9 17 1 -5
BITMAP
1800
1800
1800
FF80
FF80
3000
3000
6000
6180
6180
7F00
3E00
0800
1C00
0C00
0C00
3800
ENDCHAR
STARTCHAR Tcaron
ENCODING 356
SWIDTH 600 0
DWIDTH 11 0
BBX 11 15 1 0
BITMAP
1980
1F00
0E00
0000
7FE0
7FE0
6660
C6C0
CCC0
0C00
0C00
1800
1800
7E00
7E00
ENDCHAR
STARTCHAR tcaron
ENCODING 357
SWIDTH 600 0
DWIDTH 11 0
BBX 9 16 1 0
BITMAP
3300
3E00
1C00
0000
1800
1800
1800
FF80
FF80
3000
3000
6000
6180
6180
7F00
3E00
ENDCHAR
STARTCHAR Tbar
ENCODING 358
SWIDTH 600 0
DWIDTH 11 0
BBX 11 11 1 0
BITMAP
7FE0
7FE0
6660
C6C0
FFE0
7FE0
0C00
1800
1800
7E00
7E00
ENDCHAR
STARTCHAR tbar
ENCODING 359
SWIDTH 600 0
DWIDTH 11 0
BBX 10 12 1 0
BITMAP
1800
1800
1800
FF80
FF80
3000
3000
FFC0
FFC0
6180
7F00
3E00
ENDCHAR
STARTCHAR Utilde
ENCODING 360
SWIDTH 600 0
DWIDTH 11 0
BBX 12 14 1 0
BITMAP
0EC0
1B80
0000
7DF0
7DF0
3060
6060
60C0
60C0
C0C0
C180
E380
7F00
3E00
ENDCHAR
STARTCHAR utilde
ENCODING 361
SWIDTH 600 0
DWIDTH 11 0
BBX 9 12 1 0
BITMAP
3B00
6E00
0000
E380
E380
6180
6180
C300
C300
C700
FF80
7B80
ENDCHAR
STARTCHAR Umacron
ENCODING 362
SWIDTH 600 0
DWIDTH 11 0
BBX 12 13 1 0
BITMAP
0F80
0000
7DF0
7DF0
3060
6060
60C0
60C0
C0C0
C180
E380
7F00
3E00
ENDCHAR
STARTCHAR umacron
ENCODING 363
SWIDTH 600 0
DWIDTH 11 0
BBX 9 11 1 0
BITMAP
3E00
0000
E380
E380
6180
6180
C300
C300
C700
FF80
7B80
ENDCHAR
STARTCHAR Ubreve
ENCODING 364
SWIDTH 600 0
DWIDTH 11 0
BBX 12 14 1 0
BITMAP
1980
0F00
0000
7DF0
7DF0
3060
6060
60C0
60C0
C0C0
C180
E380
7F00
3E00
ENDCHAR
STARTCHAR ubreve
ENCODING 365
SWIDTH 600 0
DWIDTH 11 0
BBX 9 12 1 0
BITMAP
3300
1E00
0000
E380
E380
6180
6180
C300
C300
C700
FF80
7B80
ENDCHAR
STARTCHAR Uring
ENCODING 366
SWIDTH 600 0
DWIDTH 11 0
BBX 12 16 1 0
BITMAP
0380
0480
0480
0700
0000
7DF0
7DF0
3060
6060
60C0
60C0
C0C0
C180
E380
7F00
3E00
ENDCHAR
STARTCHAR uring
ENCODING 367
SWIDTH 600 0
DWIDTH 11 0
BBX 9 14 1 0
BITMAP
0E00
1200
1200
1C00
0000
E380
E380
6180
6180
C300
C300
C700
FF80
7B80
ENDCHAR
STARTCHAR Uhungarumlaut
ENCODING 368
SWIDTH 600 0
DWIDTH 11 0
BBX 12 15 1 0
BITMAP
0360
06C0
0D80
0000
7DF0
7DF0
3060
6060
60C0
60C0
C0C0
C180
E380
7F00
3E00
ENDCHAR
STARTCHAR uhungarumlaut
ENCODING 369
SWIDTH 600 0
DWIDTH 11 0
BBX 9 13 1 0
BITMAP
0D80
1B00
3600
0000
E380
E380
6180
6180
C300
C300
C700
FF80
7B80
ENDCHAR
STARTCHAR Uogonek
ENCODING 370
SWIDTH 600 0
DWIDTH 11 0
BBX 12 15 1 -4
BITMAP
7DF0
7DF0
3060
6060
60C0
60C0
C0C0
C180
E380
7F00
3E00
0C00
1800
1800
0E00
ENDCHAR
STARTCHAR uogonek
ENCODING 371
SWIDTH 600 0
DWIDTH 11 0
BBX 9 13 1 -4
BITMAP
E380
E380
6180
6180
C300
C300
C700
FF80
7B80
0C00
1800
1800
0E00
ENDCHAR
STARTCHAR Wcircumflex
ENCODING 372
SWIDTH 600 0
DWIDTH 11 0
BBX 12 15 1 0
BITMAP
0600
0F00
1980
0000
F9F0
F9F0
6060
6C60
6CC0
DEC0
D6C0
F780
E780
E300
C300
ENDCHAR
STARTCHAR wcircumflex
ENCODING 373
SWIDTH 600 0
DWIDTH 11 0
BBX 12 13 0 0
BITMAP
0600
0F00
1980
0000
F8F0
F8F0
6660
6660
6EC0
3AC0
3BC0
3180
3180
ENDCHAR
STARTCHAR Ycircumflex
ENCODING 374
SWIDTH 600 0
DWIDTH 11 0
BBX 10 15 2 0
BITMAP
0C00
1E00
3300
0000
F3C0
F3C0
6180
6300
3600
3C00
1800
3000
3000
FC00
FC00
ENDCHAR
STARTCHAR ycircumflex
ENCODING 375
SWIDTH 600 0
DWIDTH 11 0
BBX 12 17 0 -4
BITMAP
0300
0780
0CC0
0000
3CF0
3CF0
1860
0CC0
0D80
0700
0600
0600
0C00
1800
3000
F800
F800
ENDCHAR
STARTCHAR Ydieresis
ENCODING 376
SWIDTH 600 0
DWIDTH 11 0
BBX 10 13 2 0
BITMAP
3300
3300
0000
F3C0
F3C0
6180
6300
3600
3C00
3800
3000
FC00
FC00
ENDCHAR
STARTCHAR Zacute
ENCODING 377
SWIDTH 600 0
DWIDTH 11 0
BBX 10 15 1 0
BITMAP
0300
0600
0C00
0000
3FC0
3FC0
6180
6300
0600
0C00
1800
3180
6180
FF00
FF00
ENDCHAR
STARTCHAR zacute
ENCODING 378
SWIDTH 600 0
DWIDTH 11 0
BBX 9 13 1 0
BITMAP
0300
0600
0C00
0000
3F80
7F80
6700
0E00
1C00
3800
7180
FF80
FF00
ENDCHAR
STARTCHAR Zdotaccent
ENCODING 379
SWIDTH 600 0
DWIDTH 11 0
BBX 10 14 1 0
BITMAP
0600
0600
0000
3FC0
3FC0
6180
6300
0600
0C00
1800
3180
6180
FF00
FF00
ENDCHAR
STARTCHAR zdotaccent
ENCODING 380
SWIDTH 600 0
DWIDTH 11 0
BBX 9 12 1 0
BITMAP
0C00
0C00
0000
3F80
7F80
6700
0E00
1C00
3800
7180
FF80
FF00
ENDCHAR
STARTCHAR Zcaron
ENCODING 381
SWIDTH 600 0
DWIDTH 11 0
BBX 10 14 1 0
BITMAP
1980
1F00
0E00
0000
3FC0
3FC0
6180
6300
0E00
1800
3180
6180
FF00
FF00
ENDCHAR
STARTCHAR zcaron
ENCODING 382
SWIDTH 600 0
DWIDTH 11 0
BBX 9 13 1 0
BITMAP
1980
1F00
0E00
0000
3F80
7F80
6700
0E00
1C00
3800
7180
FF80
FF00
ENDCHAR
STARTCHAR uni0186
ENCODING 390
SWIDTH 600 0
DWIDTH 11 0
BBX 11 11 1 0
BITMAP
0F80
3FC0
30E0
0060
0060
0060
0060
60C0
61C0
FF80
DE00
ENDCHAR
STARTCHAR uni0189
ENCODING 393
SWIDTH 600 0
DWIDTH 11 0
BBX 11 11 0 0
BITMAP
3F80
3FC0
1860
1860
7E60
7E60
3060
60C0
61C0
FF80
FE00
ENDCHAR
STARTCHAR uni018E
ENCODING 398
SWIDTH 600 0
DWIDTH 11 0
BBX 12 11 0 0
BITMAP
3FF0
3FF0
30C0
30C0
0CC0
0F80
0F80
6D80
6300
FFC0
FFC0
ENDCHAR
STARTCHAR florin
ENCODING 402
SWIDTH 600 0
DWIDTH 11 0
BBX 12 14 0 -2
BITMAP
00F0
01F0
0300
0300
1FC0
1FC0
0600
0600
0600
0C00
0C00
0C00
F800
F000
ENDCHAR
STARTCHAR uni0197
ENCODING 407
SWIDTH 600 0
DWIDTH 11 0
BBX 10 11 1 0
BITMAP
3FC0
3FC0
0600
0600
FFC0
FFC0
0C00
1800
1800
FF00
FF00
ENDCHAR
STARTCHAR uni019A
ENCODING 410
SWIDTH 600 0
DWIDTH 11 0
BBX 10 12 0 0
BITMAP
0F00
0F00
0300
0300
0600
FFC0
FFC0
0C00
0C00
0C00
7F80
7F80
ENDCHAR
STARTCHAR uni019D
ENCODING 413
SWIDTH 600 0
DWIDTH 11 0
BBX 17 15 -5 -4
BITMAP
01CF80
01CF80
00E300
00E300
01A600
01B600
01B600
031C00
030C00
030C00
030C00
060000
060000
FC0000
F80000
ENDCHAR
STARTCHAR uni019F
ENCODING 415
SWIDTH 600 0
DWIDTH 11 0
BBX 10 11 1 0
BITMAP
0F00
3F80
71C0
60C0
FFC0
FFC0
C0C0
C180
E380
7F00
3C00
ENDCHAR
STARTCHAR Ohorn
ENCODING 416
SWIDTH 600 0
DWIDTH 11 0
BBX 13 11 1 0
BITMAP
0F18
3FB8
71F0
60E0
C0C0
C0C0
C0C0
C180
E380
7F00
3C00
ENDCHAR
STARTCHAR ohorn
ENCODING 417
SWIDTH 600 0
DWIDTH 11 0
BBX 14 9 0 0
BITMAP
0F8C
3FDC
70F8
6070
C060
C0C0
E1C0
7F80
3E00
ENDCHAR
STARTCHAR Uhorn
ENCODING 431
SWIDTH 600 0
DWIDTH 11 0
BBX 15 11 1 0
BITMAP
7DF6
7DFE
306C
6078
60D0
60C0
C0C0
C180
E380
7F00
3E00
ENDCHAR
STARTCHAR uhorn
ENCODING 432
SWIDTH 600 0
DWIDTH 11 0
BBX 12 9 1 0
BITMAP
E3B0
E3F0
61E0
61C0
C380
C300
C700
FF80
7B80
ENDCHAR
STARTCHAR uni01B5
ENCODING 437
SWIDTH 600 0
DWIDTH 11 0
BBX 10 11 1 0
BITMAP
3FC0
3FC0
6180
6300
FFC0
FFC0
1800
3180
6180
FF00
FF00
ENDCHAR
STARTCHAR uni01B6
ENCODING 438
SWIDTH 600 0
DWIDTH 11 0
BBX 10 9 1 0
BITMAP
3F80
7F80
6700
FFC0
FFC0
3800
7180
FF80
FF00
ENDCHAR
STARTCHAR uni01BB
ENCODING 443
SWIDTH 600 0
DWIDTH 11 0
BBX 10 12 1 0
BITMAP
0780
1FC0
30C0
30C0
01C0
FFC0
FFC0
1C00
3800
7000
FF00
FF00
ENDCHAR
STARTCHAR uni01BC
ENCODING 444
SWIDTH 600 0
DWIDTH 11 0
BBX 10 12 1 0
BITMAP
0FC0
0FC0
1800
1800
3F00
3F80
3180
0180
0380
C700
FE00
7C00
ENDCHAR
STARTCHAR uni01C0
ENCODING 448
SWIDTH 600 0
DWIDTH 11 0
BBX 6 16 3 -3
BITMAP
0C
0C
0C
18
18
18
30
30
30
60
60
60
60
C0
C0
C0
ENDCHAR
STARTCHAR uni01C2
ENCODING 450
SWIDTH 600 0
DWIDTH 11 0
BBX 11 16 0 -3
BITMAP
0180
0180
0180
0300
0300
7FE0
7FE0
0600
0600
FFC0
FFC0
0C00
0C00
1800
1800
1800
ENDCHAR
STARTCHAR uni01C3
ENCODING 451
SWIDTH 600 0
DWIDTH 11 0
BBX 5 12 4 0
BITMAP
38
38
38
70
70
60
60
C0
C0
00
C0
C0
ENDCHAR
STARTCHAR uni01CD
ENCODING 461
SWIDTH 600 0
DWIDTH 11 0
BBX 12 15 -1 0
BITMAP
0CC0
0F80
0700
0000
0F80
0F80
0380
0780
0CC0
0CC0
1FC0
3FC0
30C0
F9F0
F9F0
ENDCHAR
STARTCHAR uni01CE
ENCODING 462
SWIDTH 600 0
DWIDTH 11 0
BBX 10 13 0 0
BITMAP
1980
1F00
0E00
0000
0F80
3FC0
30C0
00C0
3FC0
FF80
C180
FFC0
7DC0
ENDCHAR
STARTCHAR uni01CF
ENCODING 463
SWIDTH 600 0
DWIDTH 11 0
BBX 10 15 1 0
BITMAP
1980
1F00
0E00
0000
3FC0
3FC0
0600
0600
0C00
0C00
0C00
1800
1800
FF00
FF00
ENDCHAR
STARTCHAR uni01D0
ENCODING 464
SWIDTH 600 0
DWIDTH 11 0
BBX 8 13 1 0
BITMAP
66
7C
38
00
3C
3C
0C
0C
0C
18
18
FF
FF
ENDCHAR
STARTCHAR uni01D1
ENCODING 465
SWIDTH 600 0
DWIDTH 11 0
BBX 10 15 1 0
BITMAP
1980
1F00
0E00
0000
0F00
3F80
71C0
60C0
C0C0
C0C0
C0C0
C180
E380
7F00
3C00
ENDCHAR
STARTCHAR uni01D2
ENCODING 466
SWIDTH 600 0
DWIDTH 11 0
BBX 11 13 0 0
BITMAP
1980
1F00
0E00
0000
0F80
3FC0
70E0
6060
C060
C0C0
E1C0
7F80
3E00
ENDCHAR
STARTCHAR uni01D3
ENCODING 467
SWIDTH 600 0
DWIDTH 11 0
BBX 12 15 1 0
BITMAP
0CC0
0F80
0700
0000
7DF0
7DF0
3060
6060
60C0
60C0
C0C0
C180
E380
7F00
3E00
ENDCHAR
STARTCHAR uni01D4
ENCODING 468
SWIDTH 600 0
DWIDTH 11 0
BBX 9 13 1 0
BITMAP
3300
3E00
1C00
0000
E380
E380
6180
6180
C300
C300
C700
FF80
7B80
ENDCHAR
STARTCHAR uni01D5
ENCODING 469
SWIDTH 600 0
DWIDTH 11 0
BBX 12 16 1 0
BITMAP
0F80
0000
0C60
0C60
0000
7DF0
7DF0
3060
6060
60C0
60C0
C0C0
C180
E380
7F00
3E00
ENDCHAR
STARTCHAR uni01D6
ENCODING 470
SWIDTH 600 0
DWIDTH 11 0
BBX 9 14 1 0
BITMAP
3E00
0000
3300
3300
0000
E380
E380
6180
6180
C300
C300
C700
FF80
7B80
ENDCHAR
STARTCHAR uni01D7
ENCODING 471
SWIDTH 600 0
DWIDTH 11 0
BBX 12 18 1 0
BITMAP
0180
0300
0600
0000
0C60
0C60
0000
7DF0
7DF0
3060
6060
60C0
60C0
C0C0
C180
E380
7F00
3E00
ENDCHAR
STARTCHAR uni01D8
ENCODING 472
SWIDTH 600 0
DWIDTH 11 0
BBX 9 16 1 0
BITMAP
0600
0C00
1800
0000
3300
3300
0000
E380
E380
6180
6180
C300
C300
C700
FF80
7B80
ENDCHAR
STARTCHAR uni01D9
ENCODING 473
SWIDTH 600 0
DWIDTH 11 0
BBX 12 18 1 0
BITMAP
0CC0
0F80
0700
0000
0C60
0C60
0000
7DF0
7DF0
3060
6060
60C0
60C0
C0C0
C180
E380
7F00
3E00
ENDCHAR
STARTCHAR uni01DA
ENCODING 474
SWIDTH 600 0
DWIDTH 11 0
BBX 9 16 1 0
BITMAP
3300
3E00
1C00
0000
3300
3300
0000
E380
E380
6180
6180
C300
C300
C700
FF80
7B80
ENDCHAR
STARTCHAR uni01DB
ENCODING 475
SWIDTH 600 0
DWIDTH 11 0
BBX 12 18 1 0
BITMAP
0C00
0600
0300
0000
0C60
0C60
0000
7DF0
7DF0
3060
6060
60C0
60C0
C0C0
C180
E380
7F00
3E00
ENDCHAR
STARTCHAR uni01DC
ENCODING 476
SWIDTH 600 0
DWIDTH 11 0
BBX 9 16 1 0
BITMAP
3000
1800
0C00
0000
3300
3300
0000
E380
E380
6180
6180
C300
C300
C700
FF80
7B80
ENDCHAR
STARTCHAR uni01DD
ENCODING 477
SWIDTH 600 0
DWIDTH 11 0
BBX 11 9 0 0
BITMAP
3F80
3FC0
0060
FFE0
FFE0
C0C0
E1C0
7F80
3E00
ENDCHAR
STARTCHAR uni01DE
ENCODING 478
SWIDTH 600 0
DWIDTH 11 0
BBX 12 16 -1 0
BITMAP
0F80
0000
0660
0660
0000
0F80
0F80
0380
0780
0480
0CC0
1FC0
3FC0
30C0
F9F0
F9F0
ENDCHAR
STARTCHAR uni01DF
ENCODING 479
SWIDTH 600 0
DWIDTH 11 0
BBX 10 14 0 0
BITMAP
0F80
0000
0CC0
0CC0
0000
0F80
3FC0
30C0
00C0
3FC0
FF80
C180
FFC0
7DC0
ENDCHAR
STARTCHAR uni01E0
ENCODING 480
SWIDTH 600 0
DWIDTH 11 0
BBX 12 16 -1 0
BITMAP
0F80
0000
0600
0600
0000
0F80
0F80
0380
0780
0CC0
0CC0
1FC0
3FC0
30C0
F9F0
F9F0
ENDCHAR
STARTCHAR uni01E1
ENCODING 481
SWIDTH 600 0
DWIDTH 11 0
BBX 10 14 0 0
BITMAP
1F00
0000
0600
0600
0000
0F80
3FC0
30C0
00C0
3FC0
FF80
C180
FFC0
7DC0
ENDCHAR
STARTCHAR uni01E2
ENCODING 482
SWIDTH 600 0
DWIDTH 11 0
BBX 14 13 -1 0
BITMAP
03E0
0000
07FC
07FC
03CC
06C0
05F0
0DF0
1F80
1F00
3330
FBF0
FBF0
ENDCHAR
STARTCHAR uni01E3
ENCODING 483
SWIDTH 600 0
DWIDTH 11 0
BBX 11 11 0 0
BITMAP
1F00
0000
3DC0
7FE0
6660
0660
3FE0
FFC0
CC00
FFC0
77C0
ENDCHAR
STARTCHAR uni01E4
ENCODING 484
SWIDTH 600 0
DWIDTH 11 0
BBX 14 11 1 0
BITMAP
0F60
3FE0
70C0
60C0
C000
C000
CFFC
CFFC
E180
7F80
3E00
ENDCHAR
STARTCHAR uni01E5
ENCODING 485
SWIDTH 600 0
DWIDTH 11 0
BBX 12 13 0 -4
BITMAP
0F70
3FE0
71C0
60C0
C0C0
C1C0
E380
7F80
FFF0
FFF0
0700
7E00
7C00
ENDCHAR
STARTCHAR Gcaron
ENCODING 486
SWIDTH 600 0
DWIDTH 11 0
BBX 11 15 1 0
BITMAP
1980
1F00
0E00
0000
0F60
3FE0
70C0
60C0
C000
C000
C7C0
C7C0
E180
7F80
3E00
ENDCHAR
STARTCHAR gcaron
ENCODING 487
SWIDTH 600 0
DWIDTH 11 0
BBX 12 17 0 -4
BITMAP
0CC0
0F80
0700
0000
0F70
3FE0
71C0
60C0
C0C0
C1C0
E380
7F80
3D80
0300
0700
7E00
7C00
ENDCHAR
STARTCHAR uni01E8
ENCODING 488
SWIDTH 600 0
DWIDTH 11 0
BBX 12 15 0 0
BITMAP
0CC0
0F80
0700
0000
3DF0
3DF0
18C0
1980
3300
3E00
3E00
6700
6380
F9E0
F9E0
ENDCHAR
STARTCHAR uni01E9
ENCODING 489
SWIDTH 600 0
DWIDTH 11 0
BBX 11 16 0 0
BITMAP
1980
1F00
0E00
0000
3800
3800
1800
19E0
33E0
3700
3E00
3C00
6E00
6700
E3C0
E3C0
ENDCHAR
STARTCHAR uni01EA
ENCODING 490
SWIDTH 600 0
DWIDTH 11 0
BBX 10 15 1 -4
BITMAP
0F00
3F80
71C0
60C0
C0C0
C0C0
C0C0
C180
E380
7F00
3C00
0C00
1800
1800
0E00
ENDCHAR
STARTCHAR uni01EB
ENCODING 491
SWIDTH 600 0
DWIDTH 11 0
BBX 11 13 0 -4
BITMAP
0F80
3FC0
70E0
6060
C060
C0C0
E1C0
7F80
3E00
0C00
1800
1800
0E00
ENDCHAR
STARTCHAR uni01EC
ENCODING 492
SWIDTH 600 0
DWIDTH 11 0
BBX 10 17 1 -4
BITMAP
1F00
0000
0F00
3F80
71C0
60C0
C0C0
C0C0
C0C0
C180
E380
7F00
3C00
0C00
1800
1800
0E00
ENDCHAR
STARTCHAR uni01ED
ENCODING 493
SWIDTH 600 0
DWIDTH 11 0
BBX 11 15 0 -4
BITMAP
1F00
0000
0F80
3FC0
70E0
6060
C060
C0C0
E1C0
7F80
3E00
0C00
1800
1800
0E00
ENDCHAR
STARTCHAR uni01F0
ENCODING 496
SWIDTH 600 0
DWIDTH 11 0
BBX 10 17 0 -4
BITMAP
1980
1F00
0E00
0000
3FC0
3FC0
0180
0180
0180
0300
0300
0300
0300
0600
0600
FC00
F800
ENDCHAR
STARTCHAR uni01F4
ENCODING 500
SWIDTH 600 0
DWIDTH 11 0
BBX 11 15 1 0
BITMAP
0180
0300
0600
0000
0F60
3FE0
70C0
60C0
C000
C000
C7C0
C7C0
E180
7F80
3E00
ENDCHAR
STARTCHAR uni01F5
ENCODING 501
SWIDTH 600 0
DWIDTH 11 0
BBX 12 17 0 -4
BITMAP
0180
0300
0600
0000
0F70
3FE0
71C0
60C0
C0C0
C1C0
E380
7F80
3D80
0300
0700
7E00
7C00
ENDCHAR
STARTCHAR uni01F8
ENCODING 504
SWIDTH 600 0
DWIDTH 11 0
BBX 12 15 0 0
BITMAP
0C00
0600
0300
0000
39F0
39F0
1C60
1C60
34C0
36C0
36C0
6380
6380
FB80
FB80
ENDCHAR
STARTCHAR uni01F9
ENCODING 505
SWIDTH 600 0
DWIDTH 11 0
BBX 10 13 0 0
BITMAP
1800
0C00
0600
0000
7B80
7FC0
38C0
30C0
30C0
6180
6180
F3C0
F3C0
ENDCHAR
STARTCHAR Aringacute
ENCODING 506
SWIDTH 600 0
DWIDTH 11 0
BBX 12 19 -1 0
BITMAP
00C0
0180
0300
0000
01C0
0240
0240
0180
0F80
0F80
0380
0780
0480
0CC0
1FC0
3FC0
30C0
F9F0
F9F0
ENDCHAR
STARTCHAR aringacute
ENCODING 507
SWIDTH 600 0
DWIDTH 11 0
BBX 10 18 0 0
BITMAP
0180
0300
0600
0000
0380
0480
0480
0700
0000
1F80
3FC0
30C0
00C0
3FC0
FF80
C180
FFC0
7DC0
ENDCHAR
STARTCHAR AEacute
ENCODING 508
SWIDTH 600 0
DWIDTH 11 0
BBX 14 15 -1 0
BITMAP
0060
00C0
0180
0000
07FC
07FC
03CC
06C0
05F0
0DF0
1F80
1F00
3330
FBF0
FBF0
ENDCHAR
STARTCHAR aeacute
ENCODING 509
SWIDTH 600 0
DWIDTH 11 0
BBX 11 13 0 0
BITMAP
0300
0600
0C00
0000
3DC0
7FE0
6660
0660
3FE0
FFC0
CC00
FFC0
77C0
ENDCHAR
STARTCHAR Oslashacute
ENCODING 510
SWIDTH 600 0
DWIDTH 11 0
BBX 14 17 -1 -1
BITMAP
0060
00C0
0180
0000
000C
03D8
0FF0
1C70
18F0
31B0
3330
3630
3C60
38E0
3FC0
6F00
C000
ENDCHAR
STARTCHAR oslashacute
ENCODING 511
SWIDTH 600 0
DWIDTH 11 0
BBX 12 15 -1 -1
BITMAP
00C0
0180
0300
0000
0030
07E0
1FE0
39F0
3330
6630
6C60
78E0
3FC0
7F00
C000
ENDCHAR
STARTCHAR Scommaaccent
ENCODING 536
SWIDTH 600 0
DWIDTH 11 0
BBX 12 17 0 -6
BITMAP
07B0
1FF0
3860
3860
1E00
0F80
03C0
60C0
61C0
FF80
EF00
0000
0600
0E00
0C00
1800
1000
ENDCHAR
STARTCHAR scommaaccent
ENCODING 537
SWIDTH 600 0
DWIDTH 11 0
BBX 11 15 0 -6
BITMAP
0F60
1FE0
30C0
3C00
1F00
6780
6180
FF80
DF00
0000
0C00
1C00
1800
3000
2000
ENDCHAR
STARTCHAR Tcommaaccent
ENCODING 538
SWIDTH 600 0
DWIDTH 11 0
BBX 11 17 1 -6
BITMAP
7FE0
7FE0
6660
C6C0
CCC0
0C00
0C00
1800
1800
7E00
7E00
0000
0C00
1C00
1800
3000
2000
ENDCHAR
STARTCHAR tcommaaccent
ENCODING 539
SWIDTH 600 0
DWIDTH 11 0
BBX 9 18 1 -6
BITMAP
1800
1800
1800
FF80
FF80
3000
3000
6000
6180
6180
7F00
3E00
0000
0C00
1C00
1800
3000
2000
ENDCHAR
STARTCHAR uni021E
ENCODING 542
SWIDTH 600 0
DWIDTH 11 0
BBX 12 15 0 0
BITMAP
0CC0
0F80
0700
0000
3CF0
3CF0
1860
1860
3FC0
3FC0
30C0
6180
6180
F3C0
F3C0
ENDCHAR
STARTCHAR uni021F
ENCODING 543
SWIDTH 600 0
DWIDTH 11 0
BBX 10 16 0 0
BITMAP
3300
3E00
1C00
0000
3800
3800
1800
3780
3FC0
38C0
30C0
60C0
6180
6180
F3C0
F3C0
ENDCHAR
STARTCHAR uni0226
ENCODING 550
SWIDTH 600 0
DWIDTH 11 0
BBX 12 14 -1 0
BITMAP
0600
0600
0000
0F80
0F80
0380
0780
0CC0
0CC0
1FC0
3FC0
30C0
F9F0
F9F0
ENDCHAR
STARTCHAR uni0227
ENCODING 551
SWIDTH 600 0
DWIDTH 11 0
BBX 10 12 0 0
BITMAP
0600
0600
0000
0F80
3FC0
30C0
00C0
3FC0
FF80
C180
FFC0
7DC0
ENDCHAR
STARTCHAR uni0228
ENCODING 552
SWIDTH 600 0
DWIDTH 11 0
BBX 12 16 0 -5
BITMAP
3FF0
3FF0
0C60
1B60
1F00
1F00
3300
30C0
30C0
FFC0
FFC0
0400
0E00
0600
0600
1C00
ENDCHAR
STARTCHAR uni0229
ENCODING 553
SWIDTH 600 0
DWIDTH 11 0
BBX 11 14 0 -5
BITMAP
0F80
3FC0
70E0
6060
FFE0
FFE0
C000
7F80
3F80
0400
0E00
0600
0600
1C00
ENDCHAR
STARTCHAR uni022A
ENCODING 554
SWIDTH 600 0
DWIDTH 11 0
BBX 10 16 1 0
BITMAP
1F00
0000
1980
1980
0000
0F00
3F80
71C0
60C0
C0C0
C0C0
C0C0
C180
E380
7F00
3C00
ENDCHAR
STARTCHAR uni022B
ENCODING 555
SWIDTH 600 0
DWIDTH 11 0
BBX 11 14 0 0
BITMAP
0F80
0000
0CC0
0CC0
0000
0F80
3FC0
70E0
6060
C060
C0C0
E1C0
7F80
3E00
ENDCHAR
STARTCHAR uni022C
ENCODING 556
SWIDTH 600 0
DWIDTH 11 0
BBX 10 16 1 0
BITMAP
1F00
0000
0EC0
1B80
0000
0F00
3F80
71C0
60C0
C0C0
C0C0
C0C0
C180
E380
7F00
3C00
ENDCHAR
STARTCHAR uni022D
ENCODING 557
SWIDTH 600 0
DWIDTH 11 0
BBX 11 14 0 0
BITMAP
0F80
0000
0EC0
1B80
0000
0F80
3FC0
70E0
6060
C060
C0C0
E1C0
7F80
3E00
ENDCHAR
STARTCHAR uni022E
ENCODING 558
SWIDTH 600 0
DWIDTH 11 0
BBX 10 14 1 0
BITMAP
0C00
0C00
0000
0F00
3F80
71C0
60C0
C0C0
C0C0
C0C0
C180
E380
7F00
3C00
ENDCHAR
STARTCHAR uni022F
ENCODING 559
SWIDTH 600 0
DWIDTH 11 0
BBX 11 12 0 0
BITMAP
0600
0600
0000
0F80
3FC0
70E0
6060
C060
C0C0
E1C0
7F80
3E00
ENDCHAR
STARTCHAR uni0230
ENCODING 560
SWIDTH 600 0
DWIDTH 11 0
BBX 10 16 1 0
BITMAP
1F00
0000
0C00
0C00
0000
0F00
3F80
71C0
60C0
C0C0
C0C0
C0C0
C180
E380
7F00
3C00
ENDCHAR
STARTCHAR uni0231
ENCODING 561
SWIDTH 600 0
DWIDTH 11 0
BBX 11 14 0 0
BITMAP
0F80
0000
0600
0600
0000
0F80
3FC0
70E0
6060
C060
C0C0
E1C0
7F80
3E00
ENDCHAR
STARTCHAR uni0232
ENCODING 562
SWIDTH 600 0
DWIDTH 11 0
BBX 10 13 2 0
BITMAP
1F00
0000
F3C0
F3C0
6180
6300
3600
3C00
1800
3000
3000
FC00
FC00
ENDCHAR
STARTCHAR uni0233
ENCODING 563
SWIDTH 600 0
DWIDTH 11 0
BBX 12 15 0 -4
BITMAP
0F80
0000
3CF0
3CF0
1860
0CC0
0D80
0700
0600
0600
0C00
1800
3000
F800
F800
ENDCHAR
STARTCHAR uni0250
ENCODING 592
SWIDTH 600 0
DWIDTH 11 0
BBX 10 9 0 0
BITMAP
EF80
FFC0
60C0
7FC0
FF00
C000
C300
FF00
7C00
ENDCHAR
STARTCHAR uni0259
ENCODING 601
SWIDTH 600 0
DWIDTH 11 0
BBX 11 9 0 0
BITMAP
3F80
3FC0
0060
FFE0
FFE0
C0C0
E1C0
7F80
3E00
ENDCHAR
STARTCHAR uni025F
ENCODING 607
SWIDTH 600 0
DWIDTH 11 0
BBX 11 12 1 -3
BITMAP
0FE0
0FE0
0180
0180
0380
0300
0300
3FC0
3FC0
0600
FE00
F800
ENDCHAR
STARTCHAR uni0265
ENCODING 613
SWIDTH 600 0
DWIDTH 11 0
BBX 10 12 0 -3
BITMAP
F3C0
F3C0
6180
6180
C180
C300
C700
FF00
7B00
0600
0700
0700
ENDCHAR
STARTCHAR uni0275
ENCODING 629
SWIDTH 600 0
DWIDTH 11 0
BBX 11 9 0 0
BITMAP
0F80
3FC0
70E0
FFE0
FFE0
C0C0
E1C0
7F80
3E00
ENDCHAR
STARTCHAR uni0279
ENCODING 633
SWIDTH 600 0
DWIDTH 11 0
BBX 11 9 0 0
BITMAP
1FE0
1FE0
0180
0180
0300
0300
C700
FFC0
77C0
ENDCHAR
STARTCHAR uni0287
ENCODING 647
SWIDTH 600 0
DWIDTH 11 0
BBX 9 12 1 0
BITMAP
3E00
7F00
C300
C300
0300
0600
0600
FF80
FF80
0C00
0C00
0C00
ENDCHAR
STARTCHAR uni0289
ENCODING 649
SWIDTH 600 0
DWIDTH 11 0
BBX 9 9 1 0
BITMAP
E380
E380
6180
FF80
FF80
C300
C700
FF80
7B80
ENDCHAR
STARTCHAR uni028C
ENCODING 652
SWIDTH 600 0
DWIDTH 11 0
BBX 11 9 1 0
BITMAP
0300
0700
0F80
0D80
1980
30C0
60C0
F1E0
F1E0
ENDCHAR
STARTCHAR uni028D
ENCODING 653
SWIDTH 600 0
DWIDTH 11 0
BBX 12 9 0 0
BITMAP
18C0
18C0
3DC0
35C0
3760
6660
6660
F1F0
F1F0
ENDCHAR
STARTCHAR uni028E
ENCODING 654
SWIDTH 600 0
DWIDTH 11 0
BBX 12 13 0 0
BITMAP
01F0
01F0
00C0
0180
0300
0600
0600
0E00
1B00
3300
6180
F3C0
F3C0
ENDCHAR
STARTCHAR uni029E
ENCODING 670
SWIDTH 600 0
DWIDTH 11 0
BBX 11 12 0 -3
BITMAP
78E0
78E0
1CC0
0EC0
0780
0F80
1D80
F980
F300
0300
0380
0380
ENDCHAR
STARTCHAR uni02BB
ENCODING 699
SWIDTH 600 0
DWIDTH 11 0
BBX 3 5 6 7
BITMAP
C0
C0
60
60
20
ENDCHAR
STARTCHAR afii57929
ENCODING 700
SWIDTH 600 0
DWIDTH 11 0
BBX 4 5 5 7
BITMAP
30
70
60
C0
80
ENDCHAR
STARTCHAR afii64937
ENCODING 701
SWIDTH 600 0
DWIDTH 11 0
BBX 4 5 5 7
BITMAP
C0
E0
60
30
10
ENDCHAR
STARTCHAR circumflex
ENCODING 710
SWIDTH 600 0
DWIDTH 11 0
BBX 6 3 4 9
BITMAP
30
78
CC
ENDCHAR
STARTCHAR caron
ENCODING 711
SWIDTH 600 0
DWIDTH 11 0
BBX 6 3 5 9
BITMAP
CC
F8
70
ENDCHAR
STARTCHAR uni02C8
ENCODING 712
SWIDTH 600 0
DWIDTH 11 0
BBX 4 6 5 6
BITMAP
30
30
60
60
C0
C0
ENDCHAR
STARTCHAR macron
ENCODING 713
SWIDTH 600 0
DWIDTH 11 0
BBX 5 1 5 9
BITMAP
F8
ENDCHAR
STARTCHAR uni02CA
ENCODING 714
SWIDTH 600 0
DWIDTH 11 0
BBX 4 3 7 9
BITMAP
30
60
C0
ENDCHAR
STARTCHAR uni02CB
ENCODING 715
SWIDTH 600 0
DWIDTH 11 0
BBX 4 3 4 9
BITMAP
C0
60
30
ENDCHAR
STARTCHAR uni02CD
ENCODING 717
SWIDTH 600 0
DWIDTH 11 0
BBX 5 1 5 -2
BITMAP
F8
ENDCHAR
STARTCHAR uni02CE
ENCODING 718
SWIDTH 600 0
DWIDTH 11 0
BBX 4 3 4 -4
BITMAP
C0
60
30
ENDCHAR
STARTCHAR uni02CF
ENCODING 719
SWIDTH 600 0
DWIDTH 11 0
BBX 4 3 7 -4
BITMAP
30
60
C0
ENDCHAR
STARTCHAR breve
ENCODING 728
SWIDTH 600 0
DWIDTH 11 0
BBX 6 2 4 9
BITMAP
CC
78
ENDCHAR
STARTCHAR dotaccent
ENCODING 729
SWIDTH 600 0
DWIDTH 11 0
BBX 2 2 6 9
BITMAP
C0
C0
ENDCHAR
STARTCHAR ring
ENCODING 730
SWIDTH 600 0
DWIDTH 11 0
BBX 4 4 5 8
BITMAP
70
90
90
E0
ENDCHAR
STARTCHAR ogonek
ENCODING 731
SWIDTH 600 0
DWIDTH 11 0
BBX 4 4 2 -4
BITMAP
60
C0
C0
70
ENDCHAR
STARTCHAR tilde
ENCODING 732
SWIDTH 600 0
DWIDTH 11 0
BBX 7 2 4 9
BITMAP
76
DC
ENDCHAR
STARTCHAR hungarumlaut
ENCODING 733
SWIDTH 600 0
DWIDTH 11 0
BBX 7 3 4 9
BITMAP
36
6C
D8
ENDCHAR
STARTCHAR uni02EE
ENCODING 750
SWIDTH 600 0
DWIDTH 11 0
BBX 7 5 4 7
BITMAP
36
7E
6C
D8
90
ENDCHAR
STARTCHAR uni037E
ENCODING 894
SWIDTH 600 0
DWIDTH 11 0
BBX 5 11 2 -3
BITMAP
18
18
00
00
00
00
30
70
60
C0
80
ENDCHAR
STARTCHAR tonos
ENCODING 900
SWIDTH 600 0
DWIDTH 11 0
BBX 4 3 7 9
BITMAP
30
60
C0
ENDCHAR
STARTCHAR dieresistonos
ENCODING 901
SWIDTH 600 0
DWIDTH 11 0
BBX 6 6 4 9
BITMAP
0C
18
30
00
CC
CC
ENDCHAR
STARTCHAR anoteleia
ENCODING 903
SWIDTH 600 0
DWIDTH 11 0
BBX 2 2 5 5
BITMAP
C0
C0
ENDCHAR
STARTCHAR mu
ENCODING 956
SWIDTH 600 0
DWIDTH 11 0
BBX 10 13 0 -4
BITMAP
71C0
71C0
30C0
30C0
6180
6180
6380
7FC0
FDC0
C000
C000
C000
C000
ENDCHAR
STARTCHAR uni1E00
ENCODING 7680
SWIDTH 600 0
DWIDTH 11 0
BBX 12 16 -1 -5
BITMAP
0F80
0F80
0380
0780
0CC0
0CC0
1FC0
3FC0
30C0
F9F0
F9F0
0000
0700
0900
0900
0E00
ENDCHAR
STARTCHAR uni1E01
ENCODING 7681
SWIDTH 600 0
DWIDTH 11 0
BBX 10 14 0 -5
BITMAP
0F80
3FC0
30C0
00C0
3FC0
FF80
C180
FFC0
7DC0
0000
0E00
1200
1200
1C00
ENDCHAR
STARTCHAR uni1E02
ENCODING 7682
SWIDTH 600 0
DWIDTH 11 0
BBX 11 14 0 0
BITMAP
0600
0600
0000
3FC0
3FE0
0C60
0C60
1FE0
1FC0
3060
3060
30E0
FFC0
FF80
ENDCHAR
STARTCHAR uni1E03
ENCODING 7683
SWIDTH 600 0
DWIDTH 11 0
BBX 11 15 0 0
BITMAP
0C00
0C00
0000
3800
3800
1800
3780
3FC0
38E0
3060
6060
6060
70C0
FFC0
EF00
ENDCHAR
STARTCHAR uni1E04
ENCODING 7684
SWIDTH 600 0
DWIDTH 11 0
BBX 11 14 0 -3
BITMAP
3FC0
3FE0
0C60
0C60
1FE0
1FC0
3060
3060
30E0
FFC0
FF80
0000
0C00
0C00
ENDCHAR
STARTCHAR uni1E05
ENCODING 7685
SWIDTH 600 0
DWIDTH 11 0
BBX 11 15 0 -3
BITMAP
3800
3800
1800
3780
3FC0
38E0
3060
6060
6060
70C0
FFC0
EF00
0000
0C00
0C00
ENDCHAR
STARTCHAR uni1E06
ENCODING 7686
SWIDTH 600 0
DWIDTH 11 0
BBX 11 13 0 -2
BITMAP
3FC0
3FE0
0C60
0C60
1FE0
1FC0
3060
3060
30E0
FFC0
FF80
0000
1F00
ENDCHAR
STARTCHAR uni1E07
ENCODING 7687
SWIDTH 600 0
DWIDTH 11 0
BBX 11 14 0 -2
BITMAP
3800
3800
1800
3780
3FC0
38E0
3060
6060
6060
70C0
FFC0
EF00
0000
1F00
ENDCHAR
STARTCHAR uni1E08
ENCODING 7688
SWIDTH 600 0
DWIDTH 11 0
BBX 11 19 1 -4
BITMAP
0180
0300
0600
0000
0F60
3FE0
70C0
60C0
C000
C000
C000
C000
E180
7F80
3E00
1000
3800
1800
7000
ENDCHAR
STARTCHAR uni1E09
ENCODING 7689
SWIDTH 600 0
DWIDTH 11 0
BBX 11 17 0 -4
BITMAP
0180
0300
0600
0000
0F60
3FE0
70C0
60C0
C000
C000
E0C0
7FC0
3F00
0800
1C00
0C00
3800
ENDCHAR
STARTCHAR uni1E0A
ENCODING 7690
SWIDTH 600 0
DWIDTH 11 0
BBX 11 14 0 0
BITMAP
0600
0600
0000
3F80
3FC0
1860
1860
3060
3060
3060
60C0
61C0
FF80
FE00
ENDCHAR
STARTCHAR uni1E0B
ENCODING 7691
SWIDTH 600 0
DWIDTH 11 0
BBX 11 15 0 0
BITMAP
0180
0180
0000
00E0
00E0
0060
0F60
3FC0
71C0
60C0
C0C0
C180
E380
7FC0
3DC0
ENDCHAR
STARTCHAR uni1E0C
ENCODING 7692
SWIDTH 600 0
DWIDTH 11 0
BBX 11 14 0 -3
BITMAP
3F80
3FC0
1860
1860
3060
3060
3060
60C0
61C0
FF80
FE00
0000
0C00
0C00
ENDCHAR
STARTCHAR uni1E0D
ENCODING 7693
SWIDTH 600 0
DWIDTH 11 0
BBX 11 15 0 -3
BITMAP
00E0
00E0
0060
0F60
3FC0
71C0
60C0
C0C0
C180
E380
7FC0
3DC0
0000
0C00
0C00
ENDCHAR
STARTCHAR uni1E0E
ENCODING 7694
SWIDTH 600 0
DWIDTH 11 0
BBX 11 13 0 -2
BITMAP
3F80
3FC0
1860
1860
3060
3060
3060
60C0
61C0
FF80
FE00
0000
3E00
ENDCHAR
STARTCHAR uni1E0F
ENCODING 7695
SWIDTH 600 0
DWIDTH 11 0
BBX 11 14 0 -2
BITMAP
00E0
00E0
0060
0F60
3FC0
71C0
60C0
C0C0
C180
E380
7FC0
3DC0
0000
1F00
ENDCHAR
STARTCHAR uni1E10
ENCODING 7696
SWIDTH 600 0
DWIDTH 11 0
BBX 11 16 0 -5
BITMAP
3F80
3FC0
1860
1860
3060
3060
3060
60C0
61C0
FF80
FE00
0400
0E00
0600
0600
1C00
ENDCHAR
STARTCHAR uni1E11
ENCODING 7697
SWIDTH 600 0
DWIDTH 11 0
BBX 11 17 0 -5
BITMAP
00E0
00E0
0060
0F60
3FC0
71C0
60C0
C0C0
C180
E380
7FC0
3DC0
0400
0E00
0600
0600
1C00
ENDCHAR
STARTCHAR uni1E12
ENCODING 7698
SWIDTH 600 0
DWIDTH 11 0
BBX 11 15 0 -4
BITMAP
3F80
3FC0
1860
1860
3060
3060
3060
60C0
61C0
FF80
FE00
0000
0C00
1E00
3300
ENDCHAR
STARTCHAR uni1E13
ENCODING 7699
SWIDTH 600 0
DWIDTH 11 0
BBX 11 16 0 -4
BITMAP
00E0
00E0
0060
0F60
3FC0
71C0
60C0
C0C0
C180
E380
7FC0
3DC0
0000
0C00
1E00
3300
ENDCHAR
STARTCHAR uni1E14
ENCODING 7700
SWIDTH 600 0
DWIDTH 11 0
BBX 12 17 0 0
BITMAP
0C00
0600
0300
0000
0F80
0000
3FF0
3FF0
0C60
1B60
1F00
1F00
3300
30C0
30C0
FFC0
FFC0
ENDCHAR
STARTCHAR uni1E15
ENCODING 7701
SWIDTH 600 0
DWIDTH 11 0
BBX 11 15 0 0
BITMAP
1800
0C00
0600
0000
1F00
0000
0F80
3FC0
70E0
6060
FFE0
FFE0
C000
7F80
3F80
ENDCHAR
STARTCHAR uni1E16
ENCODING 7702
SWIDTH 600 0
DWIDTH 11 0
BBX 12 17 0 0
BITMAP
0180
0300
0600
0000
0F80
0000
3FF0
3FF0
0C60
1B60
1F00
1F00
3300
30C0
30C0
FFC0
FFC0
ENDCHAR
STARTCHAR uni1E17
ENCODING 7703
SWIDTH 600 0
DWIDTH 11 0
BBX 11 15 0 0
BITMAP
0180
0300
0600
0000
1F00
0000
0F80
3FC0
70E0
6060
FFE0
FFE0
C000
7F80
3F80
ENDCHAR
STARTCHAR uni1E18
ENCODING 7704
SWIDTH 600 0
DWIDTH 11 0
BBX 12 15 0 -4
BITMAP
3FF0
3FF0
0C60
1B60
1F00
1F00
3300
30C0
30C0
FFC0
FFC0
0000
0C00
1E00
3300
ENDCHAR
STARTCHAR uni1E19
ENCODING 7705
SWIDTH 600 0
DWIDTH 11 0
BBX 11 13 0 -4
BITMAP
0F80
3FC0
70E0
6060
FFE0
FFE0
C000
7F80
3F80
0000
0C00
1E00
3300
ENDCHAR
STARTCHAR uni1E1A
ENCODING 7706
SWIDTH 600 0
DWIDTH 11 0
BBX 12 14 0 -3
BITMAP
3FF0
3FF0
0C60
1B60
1F00
1F00
3300
30C0
30C0
FFC0
FFC0
0000
1D80
3700
ENDCHAR
STARTCHAR uni1E1B
ENCODING 7707
SWIDTH 600 0
DWIDTH 11 0
BBX 11 12 0 -3
BITMAP
0F80
3FC0
70E0
6060
FFE0
FFE0
C000
7F80
3F80
0000
3B00
6E00
ENDCHAR
STARTCHAR uni1E1C
ENCODING 7708
SWIDTH 600 0
DWIDTH 11 0
BBX 12 19 0 -5
BITMAP
0CC0
0780
0000
3FF0
3FF0
0C60
1B60
1F00
1F00
3300
30C0
30C0
FFC0
FFC0
0400
0E00
0600
0600
1C00
ENDCHAR
STARTCHAR uni1E1D
ENCODING 7709
SWIDTH 600 0
DWIDTH 11 0
BBX 11 17 0 -5
BITMAP
1980
0F00
0000
0F80
3FC0
70E0
6060
FFE0
FFE0
C000
7F80
3F80
0400
0E00
0600
0600
1C00
ENDCHAR
STARTCHAR uni1E1E
ENCODING 7710
SWIDTH 600 0
DWIDTH 11 0
BBX 12 14 0 0
BITMAP
0300
0300
0000
3FF0
3FF0
0C60
1B60
1F00
1F00
3300
3000
3000
FE00
FE00
ENDCHAR
STARTCHAR uni1E1F
ENCODING 7711
SWIDTH 600 0
DWIDTH 11 0
BBX 11 15 1 0
BITMAP
0600
0600
0000
03E0
0FE0
0C00
7F80
7F80
1800
1800
3800
3000
3000
FE00
FE00
ENDCHAR
STARTCHAR uni1E20
ENCODING 7712
SWIDTH 600 0
DWIDTH 11 0
BBX 11 13 1 0
BITMAP
0F80
0000
0F60
3FE0
70C0
60C0
C000
C000
C7C0
C7C0
E180
7F80
3E00
ENDCHAR
STARTCHAR uni1E21
ENCODING 7713
SWIDTH 600 0
DWIDTH 11 0
BBX 12 15 0 -4
BITMAP
0F80
0000
0F70
3FE0
71C0
60C0
C0C0
C1C0
E380
7F80
3D80
0300
0700
7E00
7C00
ENDCHAR
STARTCHAR uni1E22
ENCODING 7714
SWIDTH 600 0
DWIDTH 11 0
BBX 12 14 0 0
BITMAP
0300
0300
0000
3CF0
3CF0
1860
1860
3FC0
3FC0
30C0
6180
6180
F3C0
F3C0
ENDCHAR
STARTCHAR uni1E23
ENCODING 7715
SWIDTH 600 0
DWIDTH 11 0
BBX 10 15 0 0
BITMAP
0C00
0C00
0000
3800
3800
1800
3780
3FC0
38C0
30C0
60C0
6180
6180
F3C0
F3C0
ENDCHAR
STARTCHAR uni1E24
ENCODING 7716
SWIDTH 600 0
DWIDTH 11 0
BBX 12 14 0 -3
BITMAP
3CF0
3CF0
1860
1860
3FC0
3FC0
30C0
6180
6180
F3C0
F3C0
0000
0C00
0C00
ENDCHAR
STARTCHAR uni1E25
ENCODING 7717
SWIDTH 600 0
DWIDTH 11 0
BBX 10 15 0 -3
BITMAP
3800
3800
1800
3780
3FC0
38C0
30C0
60C0
6180
6180
F3C0
F3C0
0000
0C00
0C00
ENDCHAR
STARTCHAR uni1E26
ENCODING 7718
SWIDTH 600 0
DWIDTH 11 0
BBX 12 14 0 0
BITMAP
0CC0
0CC0
0000
3CF0
3CF0
1860
1860
3FC0
3FC0
30C0
6180
6180
F3C0
F3C0
ENDCHAR
STARTCHAR uni1E27
ENCODING 7719
SWIDTH 600 0
DWIDTH 11 0
BBX 10 15 0 0
BITMAP
3300
3300
0000
3800
3800
1800
3780
3FC0
38C0
30C0
60C0
6180
6180
F3C0
F3C0
ENDCHAR
STARTCHAR uni1E28
ENCODING 7720
SWIDTH 600 0
DWIDTH 11 0
BBX 12 16 0 -5
BITMAP
3CF0
3CF0
1860
1860
3FC0
3FC0
30C0
6180
6180
F3C0
F3C0
0400
0E00
0600
0600
1C00
ENDCHAR
STARTCHAR uni1E29
ENCODING 7721
SWIDTH 600 0
DWIDTH 11 0
BBX 10 17 0 -5
BITMAP
3800
3800
1800
3780
3FC0
38C0
30C0
60C0
6180
6180
F3C0
F3C0
0400
0E00
0600
0600
1C00
ENDCHAR
STARTCHAR uni1E2A
ENCODING 7722
SWIDTH 600 0
DWIDTH 11 0
BBX 12 14 0 -3
BITMAP
3CF0
3CF0
1860
1860
3FC0
3FC0
30C0
6180
6180
F3C0
F3C0
0000
3300
1E00
ENDCHAR
STARTCHAR uni1E2B
ENCODING 7723
SWIDTH 600 0
DWIDTH 11 0
BBX 10 15 0 -3
BITMAP
3800
3800
1800
3780
3FC0
38C0
30C0
60C0
6180
6180
F3C0
F3C0
0000
3300
1E00
ENDCHAR
STARTCHAR uni1E2C
ENCODING 7724
SWIDTH 600 0
DWIDTH 11 0
BBX 10 14 1 -3
BITMAP
3FC0
3FC0
0600
0600
0C00
0C00
0C00
1800
1800
FF00
FF00
0000
3B00
6E00
ENDCHAR
STARTCHAR uni1E2D
ENCODING 7725
SWIDTH 600 0
DWIDTH 11 0
BBX 8 15 1 -3
BITMAP
06
06
00
3C
3C
0C
0C
0C
18
18
FF
FF
00
76
DC
ENDCHAR
STARTCHAR uni1E2E
ENCODING 7726
SWIDTH 600 0
DWIDTH 11 0
BBX 10 18 1 0
BITMAP
0180
0300
0600
0000
18C0
18C0
0000
3FC0
3FC0
0600
0600
0C00
0C00
0C00
1800
1800
FF00
FF00
ENDCHAR
STARTCHAR uni1E2F
ENCODING 7727
SWIDTH 600 0
DWIDTH 11 0
BBX 8 16 1 0
BITMAP
06
0C
18
00
33
33
00
3C
3C
0C
0C
0C
18
18
FF
FF
ENDCHAR
STARTCHAR uni1E30
ENCODING 7728
SWIDTH 600 0
DWIDTH 11 0
BBX 12 15 0 0
BITMAP
0180
0300
0600
0000
3DF0
3DF0
18C0
1980
3300
3E00
3E00
6700
6380
F9E0
F9E0
ENDCHAR
STARTCHAR uni1E31
ENCODING 7729
SWIDTH 600 0
DWIDTH 11 0
BBX 11 16 0 0
BITMAP
0300
0600
0C00
0000
3800
3800
1800
19E0
33E0
3700
3E00
3C00
6E00
6700
E3C0
E3C0
ENDCHAR
STARTCHAR uni1E32
ENCODING 7730
SWIDTH 600 0
DWIDTH 11 0
BBX 12 14 0 -3
BITMAP
3DF0
3DF0
18C0
1980
3300
3E00
3E00
6700
6380
F9E0
F9E0
0000
0600
0600
ENDCHAR
STARTCHAR uni1E33
ENCODING 7731
SWIDTH 600 0
DWIDTH 11 0
BBX 11 15 0 -3
BITMAP
3800
3800
1800
19E0
33E0
3700
3E00
3C00
6E00
6700
E3C0
E3C0
0000
0C00
0C00
ENDCHAR
STARTCHAR uni1E34
ENCODING 7732
SWIDTH 600 0
DWIDTH 11 0
BBX 12 13 0 -2
BITMAP
3DF0
3DF0
18C0
1980
3300
3E00
3E00
6700
6380
F9E0
F9E0
0000
1F00
ENDCHAR
STARTCHAR uni1E35
ENCODING 7733
SWIDTH 600 0
DWIDTH 11 0
BBX 11 14 0 -2
BITMAP
3800
3800
1800
19E0
33E0
3700
3E00
3C00
6E00
6700
E3C0
E3C0
0000
1F00
ENDCHAR
STARTCHAR uni1E36
ENCODING 7734
SWIDTH 600 0
DWIDTH 11 0
BBX 11 14 0 -3
BITMAP
3F00
3F00
0C00
0C00
1800
1800
1860
3060
30C0
FFC0
FF80
0000
0C00
0C00
ENDCHAR
STARTCHAR uni1E37
ENCODING 7735
SWIDTH 600 0
DWIDTH 11 0
BBX 8 15 1 -3
BITMAP
1E
1E
06
06
0C
0C
0C
18
18
18
FF
FF
00
18
18
ENDCHAR
STARTCHAR uni1E38
ENCODING 7736
SWIDTH 600 0
DWIDTH 11 0
BBX 11 16 0 -3
BITMAP
1F00
0000
3F00
3F00
0C00
0C00
1800
1800
1860
3060
30C0
FFC0
FF80
0000
0C00
0C00
ENDCHAR
STARTCHAR uni1E39
ENCODING 7737
SWIDTH 600 0
DWIDTH 11 0
BBX 8 17 1 -3
BITMAP
3E
00
1E
1E
06
06
0C
0C
0C
18
18
18
FF
FF
00
18
18
ENDCHAR
STARTCHAR uni1E3A
ENCODING 7738
SWIDTH 600 0
DWIDTH 11 0
BBX 11 13 0 -2
BITMAP
3F00
3F00
0C00
0C00
1800
1800
1860
3060
30C0
FFC0
FF80
0000
1F00
ENDCHAR
STARTCHAR uni1E3B
ENCODING 7739
SWIDTH 600 0
DWIDTH 11 0
BBX 8 14 1 -2
BITMAP
1E
1E
06
06
0C
0C
0C
18
18
18
FF
FF
00
3E
ENDCHAR
STARTCHAR uni1E3C
ENCODING 7740
SWIDTH 600 0
DWIDTH 11 0
BBX 11 15 0 -4
BITMAP
3F00
3F00
0C00
0C00
1800
1800
1860
3060
30C0
FFC0
FF80
0000
0C00
1E00
3300
ENDCHAR
STARTCHAR uni1E3D
ENCODING 7741
SWIDTH 600 0
DWIDTH 11 0
BBX 8 16 1 -4
BITMAP
1E
1E
06
06
0C
0C
0C
18
18
18
FF
FF
00
18
3C
66
ENDCHAR
STARTCHAR uni1E3E
ENCODING 7742
SWIDTH 600 0
DWIDTH 11 0
BBX 13 15 0 0
BITMAP
00C0
0180
0300
0000
3838
3838
1870
38E0
3DE0
37E0
3760
66C0
60C0
FBE0
FBE0
ENDCHAR
STARTCHAR uni1E3F
ENCODING 7743
SWIDTH 600 0
DWIDTH 11 0
BBX 12 13 -1 0
BITMAP
0180
0300
0600
0000
7B60
7FF0
3BB0
3330
3330
6660
6660
F770
F770
ENDCHAR
STARTCHAR uni1E40
ENCODING 7744
SWIDTH 600 0
DWIDTH 11 0
BBX 13 14 0 0
BITMAP
0300
0300
0000
3838
3838
1870
38E0
3DE0
37E0
3760
66C0
60C0
FBE0
FBE0
ENDCHAR
STARTCHAR uni1E41
ENCODING 7745
SWIDTH 600 0
DWIDTH 11 0
BBX 12 12 -1 0
BITMAP
0600
0600
0000
7B60
7FF0
3BB0
3330
3330
6660
6660
F770
F770
ENDCHAR
STARTCHAR uni1E42
ENCODING 7746
SWIDTH 600 0
DWIDTH 11 0
BBX 13 14 0 -3
BITMAP
3838
3838
1870
38E0
3DE0
37E0
3760
66C0
60C0
FBE0
FBE0
0000
0600
0600
ENDCHAR
STARTCHAR uni1E43
ENCODING 7747
SWIDTH 600 0
DWIDTH 11 0
BBX 12 12 -1 -3
BITMAP
7B60
7FF0
3BB0
3330
3330
6660
6660
F770
F770
0000
0600
0600
ENDCHAR
STARTCHAR uni1E44
ENCODING 7748
SWIDTH 600 0
DWIDTH 11 0
BBX 12 14 0 0
BITMAP
0300
0300
0000
39F0
39F0
1C60
1C60
34C0
36C0
36C0
6380
6380
FB80
FB80
ENDCHAR
STARTCHAR uni1E45
ENCODING 7749
SWIDTH 600 0
DWIDTH 11 0
BBX 10 12 0 0
BITMAP
0C00
0C00
0000
7B80
7FC0
38C0
30C0
30C0
6180
6180
F3C0
F3C0
ENDCHAR
STARTCHAR uni1E46
ENCODING 7750
SWIDTH 600 0
DWIDTH 11 0
BBX 12 14 0 -3
BITMAP
39F0
39F0
1C60
1C60
34C0
36C0
36C0
6380
6380
FB80
FB80
0000
0C00
0C00
ENDCHAR
STARTCHAR uni1E47
ENCODING 7751
SWIDTH 600 0
DWIDTH 11 0
BBX 10 12 0 -3
BITMAP
7B80
7FC0
38C0
30C0
30C0
6180
6180
F3C0
F3C0
0000
0C00
0C00
ENDCHAR
STARTCHAR uni1E48
ENCODING 7752
SWIDTH 600 0
DWIDTH 11 0
BBX 12 13 0 -2
BITMAP
39F0
39F0
1C60
1C60
34C0
36C0
36C0
6380
6380
FB80
FB80
0000
1F00
ENDCHAR
STARTCHAR uni1E49
ENCODING 7753
SWIDTH 600 0
DWIDTH 11 0
BBX 10 11 0 -2
BITMAP
7B80
7FC0
38C0
30C0
30C0
6180
6180
F3C0
F3C0
0000
1F00
ENDCHAR
STARTCHAR uni1E4A
ENCODING 7754
SWIDTH 600 0
DWIDTH 11 0
BBX 12 15 0 -4
BITMAP
39F0
39F0
1C60
1C60
34C0
36C0
36C0
6380
6380
FB80
FB80
0000
0C00
1E00
3300
ENDCHAR
STARTCHAR uni1E4B
ENCODING 7755
SWIDTH 600 0
DWIDTH 11 0
BBX 10 13 0 -4
BITMAP
7B80
7FC0
38C0
30C0
30C0
6180
6180
F3C0
F3C0
0000
0C00
1E00
3300
ENDCHAR
STARTCHAR uni1E4C
ENCODING 7756
SWIDTH 600 0
DWIDTH 11 0
BBX 10 18 1 0
BITMAP
0180
0300
0600
0000
0EC0
1B80
0000
0F00
3F80
71C0
60C0
C0C0
C0C0
C0C0
C180
E380
7F00
3C00
ENDCHAR
STARTCHAR uni1E4D
ENCODING 7757
SWIDTH 600 0
DWIDTH 11 0
BBX 11 16 0 0
BITMAP
0180
0300
0600
0000
0EC0
1B80
0000
0F80
3FC0
70E0
6060
C060
C0C0
E1C0
7F80
3E00
ENDCHAR
STARTCHAR uni1E4E
ENCODING 7758
SWIDTH 600 0
DWIDTH 11 0
BBX 10 17 1 0
BITMAP
1980
1980
0000
0EC0
1B80
0000
0F00
3F80
71C0
60C0
C0C0
C0C0
C0C0
C180
E380
7F00
3C00
ENDCHAR
STARTCHAR uni1E4F
ENCODING 7759
SWIDTH 600 0
DWIDTH 11 0
BBX 11 15 0 0
BITMAP
1980
1980
0000
0EC0
1B80
0000
0F80
3FC0
70E0
6060
C060
C0C0
E1C0
7F80
3E00
ENDCHAR
STARTCHAR uni1E50
ENCODING 7760
SWIDTH 600 0
DWIDTH 11 0
BBX 10 17 1 0
BITMAP
1800
0C00
0600
0000
1F00
0000
0F00
3F80
71C0
60C0
C0C0
C0C0
C0C0
C180
E380
7F00
3C00
ENDCHAR
STARTCHAR uni1E51
ENCODING 7761
SWIDTH 600 0
DWIDTH 11 0
BBX 11 15 0 0
BITMAP
1800
0C00
0600
0000
1F00
0000
0F80
3FC0
70E0
6060
C060
C0C0
E1C0
7F80
3E00
ENDCHAR
STARTCHAR uni1E52
ENCODING 7762
SWIDTH 600 0
DWIDTH 11 0
BBX 10 17 1 0
BITMAP
0300
0600
0C00
0000
1F00
0000
0F00
3F80
71C0
60C0
C0C0
C0C0
C0C0
C180
E380
7F00
3C00
ENDCHAR
STARTCHAR uni1E53
ENCODING 7763
SWIDTH 600 0
DWIDTH 11 0
BBX 11 15 0 0
BITMAP
0180
0300
0600
0000
1F00
0000
0F80
3FC0
70E0
6060
C060
C0C0
E1C0
7F80
3E00
ENDCHAR
STARTCHAR uni1E54
ENCODING 7764
SWIDTH 600 0
DWIDTH 11 0
BBX 11 15 0 0
BITMAP
0180
0300
0600
0000
3FC0
3FE0
1860
1860
30E0
3FC0
3F80
6000
6000
FC00
FC00
ENDCHAR
STARTCHAR uni1E55
ENCODING 7765
SWIDTH 600 0
DWIDTH 11 0
BBX 12 17 -1 -4
BITMAP
0180
0300
0600
0000
3DC0
3FE0
1C70
1830
1830
3030
3860
3FE0
3780
6000
6000
F800
F800
ENDCHAR
STARTCHAR uni1E56
ENCODING 7766
SWIDTH 600 0
DWIDTH 11 0
BBX 11 14 0 0
BITMAP
0600
0600
0000
3FC0
3FE0
1860
1860
30E0
3FC0
3F80
6000
6000
FC00
FC00
ENDCHAR
STARTCHAR uni1E57
ENCODING 7767
SWIDTH 600 0
DWIDTH 11 0
BBX 12 16 -1 -4
BITMAP
0600
0600
0000
3DC0
3FE0
1C70
1830
1830
3030
3860
3FE0
3780
6000
6000
F800
F800
ENDCHAR
STARTCHAR uni1E58
ENCODING 7768
SWIDTH 600 0
DWIDTH 11 0
BBX 12 14 0 0
BITMAP
0600
0600
0000
3FC0
3FE0
1860
1860
30E0
3FC0
3F80
6380
61C0
FCF0
FCF0
ENDCHAR
STARTCHAR uni1E59
ENCODING 7769
SWIDTH 600 0
DWIDTH 11 0
BBX 11 12 0 0
BITMAP
0600
0600
0000
7DC0
7FE0
1C60
1800
1800
3000
3000
FF00
FF00
ENDCHAR
STARTCHAR uni1E5A
ENCODING 7770
SWIDTH 600 0
DWIDTH 11 0
BBX 12 14 0 -3
BITMAP
3FC0
3FE0
1860
1860
30E0
3FC0
3F80
6380
61C0
FCF0
FCF0
0000
0600
0600
ENDCHAR
STARTCHAR uni1E5B
ENCODING 7771
SWIDTH 600 0
DWIDTH 11 0
BBX 11 12 0 -3
BITMAP
7DC0
7FE0
1C60
1800
1800
3000
3000
FF00
FF00
0000
1800
1800
ENDCHAR
STARTCHAR uni1E5C
ENCODING 7772
SWIDTH 600 0
DWIDTH 11 0
BBX 12 16 0 -3
BITMAP
0F80
0000
3FC0
3FE0
1860
1860
30E0
3FC0
3F80
6380
61C0
FCF0
FCF0
0000
0600
0600
ENDCHAR
STARTCHAR uni1E5D
ENCODING 7773
SWIDTH 600 0
DWIDTH 11 0
BBX 11 14 0 -3
BITMAP
1F00
0000
7DC0
7FE0
1C60
1800
1800
3000
3000
FF00
FF00
0000
1800
1800
ENDCHAR
STARTCHAR uni1E5E
ENCODING 7774
SWIDTH 600 0
DWIDTH 11 0
BBX 12 13 0 -2
BITMAP
3FC0
3FE0
1860
1860
30E0
3FC0
3F80
6380
61C0
FCF0
FCF0
0000
1F00
ENDCHAR
STARTCHAR uni1E5F
ENCODING 7775
SWIDTH 600 0
DWIDTH 11 0
BBX 11 11 0 -2
BITMAP
7DC0
7FE0
1C60
1800
1800
3000
3000
FF00
FF00
0000
3E00
ENDCHAR
STARTCHAR uni1E60
ENCODING 7776
SWIDTH 600 0
DWIDTH 11 0
BBX 12 14 0 0
BITMAP
0300
0300
0000
07B0
1FF0
3860
3860
1E00
0F80
03C0
60C0
61C0
FF80
EF00
ENDCHAR
STARTCHAR uni1E61
ENCODING 7777
SWIDTH 600 0
DWIDTH 11 0
BBX 11 12 0 0
BITMAP
0600
0600
0000
0F60
1FE0
30C0
3C00
1F00
6780
6180
FF80
DF00
ENDCHAR
STARTCHAR uni1E62
ENCODING 7778
SWIDTH 600 0
DWIDTH 11 0
BBX 12 14 0 -3
BITMAP
07B0
1FF0
3860
3860
1E00
0F80
03C0
60C0
61C0
FF80
EF00
0000
0C00
0C00
ENDCHAR
STARTCHAR uni1E63
ENCODING 7779
SWIDTH 600 0
DWIDTH 11 0
BBX 11 12 0 -3
BITMAP
0F60
1FE0
30C0
3C00
1F00
6780
6180
FF80
DF00
0000
0C00
0C00
ENDCHAR
STARTCHAR uni1E64
ENCODING 7780
SWIDTH 600 0
DWIDTH 11 0
BBX 12 18 0 0
BITMAP
0300
0300
0000
00C0
0180
0300
0000
07B0
1FF0
3860
3860
1E00
0F80
03C0
60C0
61C0
FF80
EF00
ENDCHAR
STARTCHAR uni1E65
ENCODING 7781
SWIDTH 600 0
DWIDTH 11 0
BBX 11 16 0 0
BITMAP
0300
0300
0000
0180
0300
0600
0000
0F60
1FE0
30C0
3C00
1F00
6780
6180
FF80
DF00
ENDCHAR
STARTCHAR uni1E66
ENCODING 7782
SWIDTH 600 0
DWIDTH 11 0
BBX 11 17 0 0
BITMAP
0600
0600
0000
1980
1F00
0E00
0000
0F60
3FE0
70C0
70C0
3C00
0F00
6380
6380
FF00
DE00
ENDCHAR
STARTCHAR uni1E67
ENCODING 7783
SWIDTH 600 0
DWIDTH 11 0
BBX 11 16 0 0
BITMAP
0600
0600
0000
0CC0
0F80
0700
0000
0F60
1FE0
30C0
3C00
0F00
6380
6180
FF80
DF00
ENDCHAR
STARTCHAR uni1E68
ENCODING 7784
SWIDTH 600 0
DWIDTH 11 0
BBX 12 17 0 -3
BITMAP
0300
0300
0000
07B0
1FF0
3860
3860
1E00
0F80
03C0
60C0
61C0
FF80
EF00
0000
0C00
0C00
ENDCHAR
STARTCHAR uni1E69
ENCODING 7785
SWIDTH 600 0
DWIDTH 11 0
BBX 11 15 0 -3
BITMAP
0600
0600
0000
0F60
1FE0
30C0
3C00
1F00
6780
6180
FF80
DF00
0000
0C00
0C00
ENDCHAR
STARTCHAR uni1E6A
ENCODING 7786
SWIDTH 600 0
DWIDTH 11 0
BBX 11 14 1 0
BITMAP
0600
0600
0000
7FE0
7FE0
6660
C6C0
CCC0
0C00
0C00
1800
1800
7E00
7E00
ENDCHAR
STARTCHAR uni1E6B
ENCODING 7787
SWIDTH 600 0
DWIDTH 11 0
BBX 9 15 1 0
BITMAP
1800
1800
0000
1800
1800
1800
FF80
FF80
3000
3000
6000
6180
6180
7F00
3E00
ENDCHAR
STARTCHAR uni1E6C
ENCODING 7788
SWIDTH 600 0
DWIDTH 11 0
BBX 11 14 1 -3
BITMAP
7FE0
7FE0
6660
C6C0
CCC0
0C00
0C00
1800
1800
7E00
7E00
0000
0C00
0C00
ENDCHAR
STARTCHAR uni1E6D
ENCODING 7789
SWIDTH 600 0
DWIDTH 11 0
BBX 9 15 1 -3
BITMAP
1800
1800
1800
FF80
FF80
3000
3000
6000
6180
6180
7F00
3E00
0000
0C00
0C00
ENDCHAR
STARTCHAR uni1E6E
ENCODING 7790
SWIDTH 600 0
DWIDTH 11 0
BBX 11 13 1 -2
BITMAP
7FE0
7FE0
6660
C6C0
CCC0
0C00
0C00
1800
1800
7E00
7E00
0000
3E00
ENDCHAR
STARTCHAR uni1E6F
ENCODING 7791
SWIDTH 600 0
DWIDTH 11 0
BBX 9 14 1 -2
BITMAP
1800
1800
1800
FF80
FF80
3000
3000
6000
6180
6180
7F00
3E00
0000
3E00
ENDCHAR
STARTCHAR uni1E70
ENCODING 7792
SWIDTH 600 0
DWIDTH 11 0
BBX 11 15 1 -4
BITMAP
7FE0
7FE0
6660
C6C0
CCC0
0C00
0C00
1800
1800
7E00
7E00
0000
0C00
1E00
3300
ENDCHAR
STARTCHAR uni1E71
ENCODING 7793
SWIDTH 600 0
DWIDTH 11 0
BBX 9 16 1 -4
BITMAP
1800
1800
1800
FF80
FF80
3000
3000
6000
6180
6180
7F00
3E00
0000
0C00
1E00
3300
ENDCHAR
STARTCHAR uni1E72
ENCODING 7794
SWIDTH 600 0
DWIDTH 11 0
BBX 12 14 1 -3
BITMAP
7DF0
7DF0
3060
6060
60C0
60C0
C0C0
C180
E380
7F00
3E00
0000
3300
3300
ENDCHAR
STARTCHAR uni1E73
ENCODING 7795
SWIDTH 600 0
DWIDTH 11 0
BBX 9 12 1 -3
BITMAP
E380
E380
6180
6180
C300
C300
C700
FF80
7B80
0000
3300
3300
ENDCHAR
STARTCHAR uni1E74
ENCODING 7796
SWIDTH 600 0
DWIDTH 11 0
BBX 12 14 1 -3
BITMAP
7DF0
7DF0
3060
6060
60C0
60C0
C0C0
C180
E380
7F00
3E00
0000
3B00
6E00
ENDCHAR
STARTCHAR uni1E75
ENCODING 7797
SWIDTH 600 0
DWIDTH 11 0
BBX 9 12 1 -3
BITMAP
E380
E380
6180
6180
C300
C300
C700
FF80
7B80
0000
3B00
6E00
ENDCHAR
STARTCHAR uni1E76
ENCODING 7798
SWIDTH 600 0
DWIDTH 11 0
BBX 12 15 1 -4
BITMAP
7DF0
7DF0
3060
6060
60C0
60C0
C0C0
C180
E380
7F00
3E00
0000
0C00
1E00
3300
ENDCHAR
STARTCHAR uni1E77
ENCODING 7799
SWIDTH 600 0
DWIDTH 11 0
BBX 9 13 1 -4
BITMAP
E380
E380
6180
6180
C300
C300
C700
FF80
7B80
0000
0C00
1E00
3300
ENDCHAR
STARTCHAR uni1E78
ENCODING 7800
SWIDTH 600 0
DWIDTH 11 0
BBX 12 18 1 0
BITMAP
0180
0300
0600
0000
0EC0
1B80
0000
7DF0
7DF0
3060
6060
60C0
60C0
C0C0
C180
E380
7F00
3E00
ENDCHAR
STARTCHAR uni1E79
ENCODING 7801
SWIDTH 600 0
DWIDTH 11 0
BBX 9 16 1 0
BITMAP
0600
0C00
1800
0000
3B00
6E00
0000
E380
E380
6180
6180
C300
C300
C700
FF80
7B80
ENDCHAR
STARTCHAR uni1E7A
ENCODING 7802
SWIDTH 600 0
DWIDTH 11 0
BBX 12 16 1 0
BITMAP
1980
1980
0000
0F80
0000
7DF0
7DF0
3060
6060
60C0
60C0
C0C0
C180
E380
7F00
3E00
ENDCHAR
STARTCHAR uni1E7B
ENCODING 7803
SWIDTH 600 0
DWIDTH 11 0
BBX 9 14 1 0
BITMAP
3300
3300
0000
3E00
0000
E380
E380
6180
6180
C300
C300
C700
FF80
7B80
ENDCHAR
STARTCHAR uni1E7C
ENCODING 7804
SWIDTH 600 0
DWIDTH 11 0
BBX 12 14 1 0
BITMAP
0EC0
1B80
0000
F9F0
F9F0
6060
60C0
3180
3180
3300
3600
1E00
1C00
1800
ENDCHAR
STARTCHAR uni1E7D
ENCODING 7805
SWIDTH 600 0
DWIDTH 11 0
BBX 11 12 1 0
BITMAP
1D80
3700
0000
F1E0
F1E0
60C0
6180
3300
3600
3E00
1C00
1800
ENDCHAR
STARTCHAR uni1E7E
ENCODING 7806
SWIDTH 600 0
DWIDTH 11 0
BBX 12 14 1 -3
BITMAP
F9F0
F9F0
6060
60C0
3180
3180
3300
3600
1E00
1C00
1800
0000
0C00
0C00
ENDCHAR
STARTCHAR uni1E7F
ENCODING 7807
SWIDTH 600 0
DWIDTH 11 0
BBX 11 12 1 -3
BITMAP
F1E0
F1E0
60C0
6180
3300
3600
3E00
1C00
1800
0000
0C00
0C00
ENDCHAR
STARTCHAR Wgrave
ENCODING 7808
SWIDTH 600 0
DWIDTH 11 0
BBX 12 15 1 0
BITMAP
1800
0C00
0600
0000
F9F0
F9F0
6060
6C60
6CC0
DEC0
D6C0
F780
E780
E300
C300
ENDCHAR
STARTCHAR wgrave
ENCODING 7809
SWIDTH 600 0
DWIDTH 11 0
BBX 12 13 0 0
BITMAP
1800
0C00
0600
0000
F8F0
F8F0
6660
6660
6EC0
3AC0
3BC0
3180
3180
ENDCHAR
STARTCHAR Wacute
ENCODING 7810
SWIDTH 600 0
DWIDTH 11 0
BBX 12 15 1 0
BITMAP
0180
0300
0600
0000
F9F0
F9F0
6060
6C60
6CC0
DEC0
D6C0
F780
E780
E300
C300
ENDCHAR
STARTCHAR wacute
ENCODING 7811
SWIDTH 600 0
DWIDTH 11 0
BBX 12 13 0 0
BITMAP
0180
0300
0600
0000
F8F0
F8F0
6660
6660
6EC0
3AC0
3BC0
3180
3180
ENDCHAR
STARTCHAR Wdieresis
ENCODING 7812
SWIDTH 600 0
DWIDTH 11 0
BBX 12 14 1 0
BITMAP
1980
1980
0000
F9F0
F9F0
6060
6C60
6CC0
DEC0
D6C0
F780
E780
E300
C300
ENDCHAR
STARTCHAR wdieresis
ENCODING 7813
SWIDTH 600 0
DWIDTH 11 0
BBX 12 12 0 0
BITMAP
1980
1980
0000
F8F0
F8F0
6660
6660
6EC0
3AC0
3BC0
3180
3180
ENDCHAR
STARTCHAR uni1E86
ENCODING 7814
SWIDTH 600 0
DWIDTH 11 0
BBX 12 14 1 0
BITMAP
0600
0600
0000
F9F0
F9F0
6060
6C60
6CC0
DEC0
D6C0
F780
E780
E300
C300
ENDCHAR
STARTCHAR uni1E87
ENCODING 7815
SWIDTH 600 0
DWIDTH 11 0
BBX 12 12 0 0
BITMAP
0600
0600
0000
F8F0
F8F0
6660
6660
6EC0
3AC0
3BC0
3180
3180
ENDCHAR
STARTCHAR uni1E88
ENCODING 7816
SWIDTH 600 0
DWIDTH 11 0
BBX 12 14 1 -3
BITMAP
F9F0
F9F0
6060
6C60
6CC0
DEC0
D6C0
F780
E780
E300
C300
0000
0C00
0C00
ENDCHAR
STARTCHAR uni1E89
ENCODING 7817
SWIDTH 600 0
DWIDTH 11 0
BBX 12 12 0 -3
BITMAP
F8F0
F8F0
6660
6660
6EC0
3AC0
3BC0
3180
3180
0000
0600
0600
ENDCHAR
STARTCHAR uni1E8A
ENCODING 7818
SWIDTH 600 0
DWIDTH 11 0
BBX 12 14 0 0
BITMAP
0300
0300
0000
3CF0
3CF0
18C0
1980
0F00
0E00
1E00
3300
6180
F3C0
F3C0
ENDCHAR
STARTCHAR uni1E8B
ENCODING 7819
SWIDTH 600 0
DWIDTH 11 0
BBX 13 12 0 0
BITMAP
0300
0300
0000
7CF8
7CF8
18E0
0D80
0700
0F00
3980
FBE0
FBE0
ENDCHAR
STARTCHAR uni1E8C
ENCODING 7820
SWIDTH 600 0
DWIDTH 11 0
BBX 12 14 0 0
BITMAP
0CC0
0CC0
0000
3CF0
3CF0
18C0
1980
0F00
0E00
1E00
3300
6180
F3C0
F3C0
ENDCHAR
STARTCHAR uni1E8D
ENCODING 7821
SWIDTH 600 0
DWIDTH 11 0
BBX 13 12 0 0
BITMAP
0CC0
0CC0
0000
7CF8
7CF8
18E0
0D80
0700
0F00
3980
FBE0
FBE0
ENDCHAR
STARTCHAR uni1E8E
ENCODING 7822
SWIDTH 600 0
DWIDTH 11 0
BBX 10 14 2 0
BITMAP
0C00
0C00
0000
F3C0
F3C0
6180
6300
3600
3C00
1800
3000
3000
FC00
FC00
ENDCHAR
STARTCHAR uni1E8F
ENCODING 7823
SWIDTH 600 0
DWIDTH 11 0
BBX 12 16 0 -4
BITMAP
0300
0300
0000
3CF0
3CF0
1860
0CC0
0D80
0700
0600
0600
0C00
1800
3000
F800
F800
ENDCHAR
STARTCHAR uni1E90
ENCODING 7824
SWIDTH 600 0
DWIDTH 11 0
BBX 10 15 1 0
BITMAP
0600
0F00
1980
0000
3FC0
3FC0
6180
6300
0600
0C00
1800
3180
6180
FF00
FF00
ENDCHAR
STARTCHAR uni1E91
ENCODING 7825
SWIDTH 600 0
DWIDTH 11 0
BBX 9 13 1 0
BITMAP
0C00
1E00
3300
0000
3F80
7F80
6700
0E00
1C00
3800
7180
FF80
FF00
ENDCHAR
STARTCHAR uni1E92
ENCODING 7826
SWIDTH 600 0
DWIDTH 11 0
BBX 10 14 1 -3
BITMAP
3FC0
3FC0
6180
6300
0600
0C00
1800
3180
6180
FF00
FF00
0000
1800
1800
ENDCHAR
STARTCHAR uni1E93
ENCODING 7827
SWIDTH 600 0
DWIDTH 11 0
BBX 9 12 1 -3
BITMAP
3F80
7F80
6700
0E00
1C00
3800
7180
FF80
FF00
0000
1800
1800
ENDCHAR
STARTCHAR uni1E94
ENCODING 7828
SWIDTH 600 0
DWIDTH 11 0
BBX 10 13 1 -2
BITMAP
3FC0
3FC0
6180
6300
0600
0C00
1800
3180
6180
FF00
FF00
0000
3E00
ENDCHAR
STARTCHAR uni1E95
ENCODING 7829
SWIDTH 600 0
DWIDTH 11 0
BBX 9 11 1 -2
BITMAP
3F80
7F80
6700
0E00
1C00
3800
7180
FF80
FF00
0000
3E00
ENDCHAR
STARTCHAR uni1E96
ENCODING 7830
SWIDTH 600 0
DWIDTH 11 0
BBX 10 14 0 -2
BITMAP
3800
3800
1800
3780
3FC0
38C0
30C0
60C0
6180
6180
F3C0
F3C0
0000
1F00
ENDCHAR
STARTCHAR uni1E97
ENCODING 7831
SWIDTH 600 0
DWIDTH 11 0
BBX 9 15 1 0
BITMAP
6600
6600
0000
1800
1800
1800
FF80
FF80
3000
3000
6000
6180
6180
7F00
3E00
ENDCHAR
STARTCHAR uni1E98
ENCODING 7832
SWIDTH 600 0
DWIDTH 11 0
BBX 12 14 0 0
BITMAP
0700
0900
0900
0E00
0000
F8F0
F8F0
6660
6660
6EC0
3AC0
3BC0
3180
3180
ENDCHAR
STARTCHAR uni1E99
ENCODING 7833
SWIDTH 600 0
DWIDTH 11 0
BBX 12 18 0 -4
BITMAP
0380
0480
0480
0700
0000
3CF0
3CF0
1860
0CC0
0D80
0700
0600
0600
0C00
1800
3000
F800
F800
ENDCHAR
STARTCHAR uni1EA0
ENCODING 7840
SWIDTH 600 0
DWIDTH 11 0
BBX 12 14 -1 -3
BITMAP
0F80
0F80
0380
0780
0CC0
0CC0
1FC0
3FC0
30C0
F9F0
F9F0
0000
0600
0600
ENDCHAR
STARTCHAR uni1EA1
ENCODING 7841
SWIDTH 600 0
DWIDTH 11 0
BBX 10 12 0 -3
BITMAP
0F80
3FC0
30C0
00C0
3FC0
FF80
C180
FFC0
7DC0
0000
0C00
0C00
ENDCHAR
STARTCHAR uni1EA4
ENCODING 7844
SWIDTH 600 0
DWIDTH 11 0
BBX 12 19 -1 0
BITMAP
00C0
0180
0300
0000
0180
03C0
0660
0000
0F80
0F80
0380
0780
0480
0CC0
1FC0
3FC0
30C0
F9F0
F9F0
ENDCHAR
STARTCHAR uni1EA5
ENCODING 7845
SWIDTH 600 0
DWIDTH 11 0
BBX 10 17 0 0
BITMAP
0180
0300
0600
0000
0300
0780
0CC0
0000
0F80
3FC0
30C0
00C0
3FC0
FF80
C180
FFC0
7DC0
ENDCHAR
STARTCHAR uni1EA6
ENCODING 7846
SWIDTH 600 0
DWIDTH 11 0
BBX 12 19 -1 0
BITMAP
0600
0300
0180
0000
0180
03C0
0660
0000
0F80
0F80
0380
0780
0480
0CC0
1FC0
3FC0
30C0
F9F0
F9F0
ENDCHAR
STARTCHAR uni1EA7
ENCODING 7847
SWIDTH 600 0
DWIDTH 11 0
BBX 10 17 0 0
BITMAP
0C00
0600
0300
0000
0300
0780
0CC0
0000
0F80
3FC0
30C0
00C0
3FC0
FF80
C180
FFC0
7DC0
ENDCHAR
STARTCHAR uni1EAA
ENCODING 7850
SWIDTH 600 0
DWIDTH 11 0
BBX 12 18 -1 0
BITMAP
0760
0DC0
0000
0180
03C0
0660
0000
0F80
0F80
0380
0780
0480
0CC0
1FC0
3FC0
30C0
F9F0
F9F0
ENDCHAR
STARTCHAR uni1EAB
ENCODING 7851
SWIDTH 600 0
DWIDTH 11 0
BBX 10 16 0 0
BITMAP
0EC0
1B80
0000
0300
0780
0CC0
0000
0F80
3FC0
30C0
00C0
3FC0
FF80
C180
FFC0
7DC0
ENDCHAR
STARTCHAR uni1EAC
ENCODING 7852
SWIDTH 600 0
DWIDTH 11 0
BBX 12 18 -1 -3
BITMAP
0300
0780
0CC0
0000
0F80
0F80
0380
0780
0CC0
0CC0
1FC0
3FC0
30C0
F9F0
F9F0
0000
0600
0600
ENDCHAR
STARTCHAR uni1EAD
ENCODING 7853
SWIDTH 600 0
DWIDTH 11 0
BBX 10 16 0 -3
BITMAP
0600
0F00
1980
0000
0F80
3FC0
30C0
00C0
3FC0
FF80
C180
FFC0
7DC0
0000
0C00
0C00
ENDCHAR
STARTCHAR uni1EAE
ENCODING 7854
SWIDTH 600 0
DWIDTH 11 0
BBX 12 18 -1 0
BITMAP
0180
0300
0600
0000
1980
0F00
0000
0F80
0F80
0380
0780
0CC0
0CC0
1FC0
3FC0
30C0
F9F0
F9F0
ENDCHAR
STARTCHAR uni1EAF
ENCODING 7855
SWIDTH 600 0
DWIDTH 11 0
BBX 10 16 0 0
BITMAP
0300
0600
0C00
0000
1980
0F00
0000
0F80
3FC0
30C0
00C0
3FC0
FF80
C180
FFC0
7DC0
ENDCHAR
STARTCHAR uni1EB0
ENCODING 7856
SWIDTH 600 0
DWIDTH 11 0
BBX 12 18 -1 0
BITMAP
1800
0C00
0600
0000
1980
0F00
0000
0F80
0F80
0380
0780
0CC0
0CC0
1FC0
3FC0
30C0
F9F0
F9F0
ENDCHAR
STARTCHAR uni1EB1
ENCODING 7857
SWIDTH 600 0
DWIDTH 11 0
BBX 10 16 0 0
BITMAP
1800
0C00
0600
0000
1980
0F00
0000
0F80
3FC0
30C0
00C0
3FC0
FF80
C180
FFC0
7DC0
ENDCHAR
STARTCHAR uni1EB4
ENCODING 7860
SWIDTH 600 0
DWIDTH 11 0
BBX 12 17 -1 0
BITMAP
0EC0
1B80
0000
1980
0F00
0000
0F80
0F80
0380
0780
0CC0
0CC0
1FC0
3FC0
30C0
F9F0
F9F0
ENDCHAR
STARTCHAR uni1EB5
ENCODING 7861
SWIDTH 600 0
DWIDTH 11 0
BBX 10 15 0 0
BITMAP
0EC0
1B80
0000
1980
0F00
0000
0F80
3FC0
30C0
00C0
3FC0
FF80
C180
FFC0
7DC0
ENDCHAR
STARTCHAR uni1EB6
ENCODING 7862
SWIDTH 600 0
DWIDTH 11 0
BBX 12 17 -1 -3
BITMAP
0CC0
0780
0000
0F80
0F80
0380
0780
0CC0
0CC0
1FC0
3FC0
30C0
F9F0
F9F0
0000
0600
0600
ENDCHAR
STARTCHAR uni1EB7
ENCODING 7863
SWIDTH 600 0
DWIDTH 11 0
BBX 10 15 0 -3
BITMAP
1980
0F00
0000
0F80
3FC0
30C0
00C0
3FC0
FF80
C180
FFC0
7DC0
0000
0C00
0C00
ENDCHAR
STARTCHAR uni1EB8
ENCODING 7864
SWIDTH 600 0
DWIDTH 11 0
BBX 12 14 0 -3
BITMAP
3FF0
3FF0
0C60
1B60
1F00
1F00
3300
30C0
30C0
FFC0
FFC0
0000
0C00
0C00
ENDCHAR
STARTCHAR uni1EB9
ENCODING 7865
SWIDTH 600 0
DWIDTH 11 0
BBX 11 12 0 -3
BITMAP
0F80
3FC0
70E0
6060
FFE0
FFE0
C000
7F80
3F80
0000
0C00
0C00
ENDCHAR
STARTCHAR uni1EBC
ENCODING 7868
SWIDTH 600 0
DWIDTH 11 0
BBX 12 14 0 0
BITMAP
0EC0
1B80
0000
3FF0
3FF0
0C60
1B60
1F00
1F00
3300
30C0
30C0
FFC0
FFC0
ENDCHAR
STARTCHAR uni1EBD
ENCODING 7869
SWIDTH 600 0
DWIDTH 11 0
BBX 11 12 0 0
BITMAP
0EC0
1B80
0000
0F80
3FC0
70E0
6060
FFE0
FFE0
C000
7F80
3F80
ENDCHAR
STARTCHAR uni1EBE
ENCODING 7870
SWIDTH 600 0
DWIDTH 11 0
BBX 12 19 0 0
BITMAP
00C0
0180
0300
0000
0180
03C0
0660
0000
3FF0
3FF0
0C60
1B60
1F60
1E00
3600
30C0
30C0
FFC0
FFC0
ENDCHAR
STARTCHAR uni1EBF
ENCODING 7871
SWIDTH 600 0
DWIDTH 11 0
BBX 11 17 0 0
BITMAP
0180
0300
0600
0000
0300
0780
0CC0
0000
0F80
3FC0
70E0
6060
FFE0
FFE0
C000
7F80
3F80
ENDCHAR
STARTCHAR uni1EC0
ENCODING 7872
SWIDTH 600 0
DWIDTH 11 0
BBX 12 19 0 0
BITMAP
0600
0300
0180
0000
0180
03C0
0660
0000
3FF0
3FF0
0C60
1B60
1F60
1E00
3600
30C0
30C0
FFC0
FFC0
ENDCHAR
STARTCHAR uni1EC1
ENCODING 7873
SWIDTH 600 0
DWIDTH 11 0
BBX 11 17 0 0
BITMAP
0C00
0600
0300
0000
0300
0780
0CC0
0000
0F80
3FC0
70E0
6060
FFE0
FFE0
C000
7F80
3F80
ENDCHAR
STARTCHAR uni1EC4
ENCODING 7876
SWIDTH 600 0
DWIDTH 11 0
BBX 12 18 0 0
BITMAP
0760
0DC0
0000
0180
03C0
0660
0000
3FF0
3FF0
0C60
1B60
1F60
1E00
3600
30C0
30C0
FFC0
FFC0
ENDCHAR
STARTCHAR uni1EC5
ENCODING 7877
SWIDTH 600 0
DWIDTH 11 0
BBX 11 16 0 0
BITMAP
0EC0
1B80
0000
0300
0780
0CC0
0000
0F80
3FC0
70E0
6060
FFE0
FFE0
C000
7F80
3F80
ENDCHAR
STARTCHAR uni1EC6
ENCODING 7878
SWIDTH 600 0
DWIDTH 11 0
BBX 12 18 0 -3
BITMAP
0300
0780
0CC0
0000
3FF0
3FF0
0C60
1B60
1F00
1F00
3300
30C0
30C0
FFC0
FFC0
0000
0C00
0C00
ENDCHAR
STARTCHAR uni1EC7
ENCODING 7879
SWIDTH 600 0
DWIDTH 11 0
BBX 11 16 0 -3
BITMAP
0600
0F00
1980
0000
0F80
3FC0
70E0
6060
FFE0
FFE0
C000
7F80
3F80
0000
0C00
0C00
ENDCHAR
STARTCHAR uni1ECA
ENCODING 7882
SWIDTH 600 0
DWIDTH 11 0
BBX 10 14 1 -3
BITMAP
3FC0
3FC0
0600
0600
0C00
0C00
0C00
1800
1800
FF00
FF00
0000
1800
1800
ENDCHAR
STARTCHAR uni1ECB
ENCODING 7883
SWIDTH 600 0
DWIDTH 11 0
BBX 8 15 1 -3
BITMAP
06
06
00
3C
3C
0C
0C
0C
18
18
FF
FF
00
18
18
ENDCHAR
STARTCHAR uni1ECC
ENCODING 7884
SWIDTH 600 0
DWIDTH 11 0
BBX 10 14 1 -3
BITMAP
0F00
3F80
71C0
60C0
C0C0
C0C0
C0C0
C180
E380
7F00
3C00
0000
0C00
0C00
ENDCHAR
STARTCHAR uni1ECD
ENCODING 7885
SWIDTH 600 0
DWIDTH 11 0
BBX 11 12 0 -3
BITMAP
0F80
3FC0
70E0
6060
C060
C0C0
E1C0
7F80
3E00
0000
0C00
0C00
ENDCHAR
STARTCHAR uni1ED0
ENCODING 7888
SWIDTH 600 0
DWIDTH 11 0
BBX 10 19 1 0
BITMAP
0300
0600
0C00
0000
0600
0F00
1980
0000
0F00
3F80
71C0
60C0
C0C0
C0C0
C0C0
C180
E380
7F00
3C00
ENDCHAR
STARTCHAR uni1ED1
ENCODING 7889
SWIDTH 600 0
DWIDTH 11 0
BBX 11 17 0 0
BITMAP
0180
0300
0600
0000
0300
0780
0CC0
0000
0F80
3FC0
70E0
6060
C060
C0C0
E1C0
7F80
3E00
ENDCHAR
STARTCHAR uni1ED2
ENCODING 7890
SWIDTH 600 0
DWIDTH 11 0
BBX 10 19 1 0
BITMAP
1800
0C00
0600
0000
0600
0F00
1980
0000
0F00
3F80
71C0
60C0
C0C0
C0C0
C0C0
C180
E380
7F00
3C00
ENDCHAR
STARTCHAR uni1ED3
ENCODING 7891
SWIDTH 600 0
DWIDTH 11 0
BBX 11 17 0 0
BITMAP
0C00
0600
0300
0000
0300
0780
0CC0
0000
0F80
3FC0
70E0
6060
C060
C0C0
E1C0
7F80
3E00
ENDCHAR
STARTCHAR uni1ED6
ENCODING 7894
SWIDTH 600 0
DWIDTH 11 0
BBX 10 18 1 0
BITMAP
1D80
3700
0000
0600
0F00
1980
0000
0F00
3F80
71C0
60C0
C0C0
C0C0
C0C0
C180
E380
7F00
3C00
ENDCHAR
STARTCHAR uni1ED7
ENCODING 7895
SWIDTH 600 0
DWIDTH 11 0
BBX 11 16 0 0
BITMAP
0EC0
1B80
0000
0300
0780
0CC0
0000
0F80
3FC0
70E0
6060
C060
C0C0
E1C0
7F80
3E00
ENDCHAR
STARTCHAR uni1ED8
ENCODING 7896
SWIDTH 600 0
DWIDTH 11 0
BBX 10 18 1 -3
BITMAP
0C00
1E00
3300
0000
0F00
3F80
71C0
60C0
C0C0
C0C0
C0C0
C180
E380
7F00
3C00
0000
0C00
0C00
ENDCHAR
STARTCHAR uni1ED9
ENCODING 7897
SWIDTH 600 0
DWIDTH 11 0
BBX 11 16 0 -3
BITMAP
0600
0F00
1980
0000
0F80
3FC0
70E0
6060
C060
C0C0
E1C0
7F80
3E00
0000
0C00
0C00
ENDCHAR
STARTCHAR uni1EDA
ENCODING 7898
SWIDTH 600 0
DWIDTH 11 0
BBX 13 15 1 0
BITMAP
00C0
0180
0300
0000
0F18
3FB8
71F0
60E0
C0C0
C0C0
C0C0
C180
E380
7F00
3C00
ENDCHAR
STARTCHAR uni1EDB
ENCODING 7899
SWIDTH 600 0
DWIDTH 11 0
BBX 14 13 0 0
BITMAP
00C0
0180
0300
0000
0F8C
3FDC
70F8
6070
C060
C0C0
E1C0
7F80
3E00
ENDCHAR
STARTCHAR uni1EDC
ENCODING 7900
SWIDTH 600 0
DWIDTH 11 0
BBX 13 15 1 0
BITMAP
0C00
0600
0300
0000
0F18
3FB8
71F0
60E0
C0C0
C0C0
C0C0
C180
E380
7F00
3C00
ENDCHAR
STARTCHAR uni1EDD
ENCODING 7901
SWIDTH 600 0
DWIDTH 11 0
BBX 14 13 0 0
BITMAP
0600
0300
0180
0000
0F8C
3FDC
70F8
6070
C060
C0C0
E1C0
7F80
3E00
ENDCHAR
STARTCHAR uni1EE0
ENCODING 7904
SWIDTH 600 0
DWIDTH 11 0
BBX 13 14 1 0
BITMAP
0760
0DC0
0000
0F18
3FB8
71F0
60E0
C0C0
C0C0
C0C0
C180
E380
7F00
3C00
ENDCHAR
STARTCHAR uni1EE1
ENCODING 7905
SWIDTH 600 0
DWIDTH 11 0
BBX 14 12 0 0
BITMAP
0760
0DC0
0000
0F8C
3FDC
70F8
6070
C060
C0C0
E1C0
7F80
3E00
ENDCHAR
STARTCHAR uni1EE2
ENCODING 7906
SWIDTH 600 0
DWIDTH 11 0
BBX 13 14 1 -3
BITMAP
0F18
3FB8
71F0
60E0
C0C0
C0C0
C0C0
C180
E380
7F00
3C00
0000
0C00
0C00
ENDCHAR
STARTCHAR uni1EE3
ENCODING 7907
SWIDTH 600 0
DWIDTH 11 0
BBX 14 12 0 -3
BITMAP
0F8C
3FDC
70F8
6070
C060
C0C0
E1C0
7F80
3E00
0000
0600
0600
ENDCHAR
STARTCHAR uni1EE4
ENCODING 7908
SWIDTH 600 0
DWIDTH 11 0
BBX 12 14 1 -3
BITMAP
7DF0
7DF0
3060
6060
60C0
60C0
C0C0
C180
E380
7F00
3E00
0000
0C00
0C00
ENDCHAR
STARTCHAR uni1EE5
ENCODING 7909
SWIDTH 600 0
DWIDTH 11 0
BBX 9 12 1 -3
BITMAP
E380
E380
6180
6180
C300
C300
C700
FF80
7B80
0000
0C00
0C00
ENDCHAR
STARTCHAR uni1EE8
ENCODING 7912
SWIDTH 600 0
DWIDTH 11 0
BBX 15 15 1 0
BITMAP
0060
00C0
0180
0000
7DF6
7DFE
306C
6078
60D0
60C0
C0C0
C180
E380
7F00
3E00
ENDCHAR
STARTCHAR uni1EE9
ENCODING 7913
SWIDTH 600 0
DWIDTH 11 0
BBX 12 13 1 0
BITMAP
0180
0300
0600
0000
E3B0
E3F0
61E0
61C0
C380
C300
C700
FF80
7B80
ENDCHAR
STARTCHAR uni1EEA
ENCODING 7914
SWIDTH 600 0
DWIDTH 11 0
BBX 15 15 1 0
BITMAP
0600
0300
0180
0000
7DF6
7DFE
306C
6078
60D0
60C0
C0C0
C180
E380
7F00
3E00
ENDCHAR
STARTCHAR uni1EEB
ENCODING 7915
SWIDTH 600 0
DWIDTH 11 0
BBX 12 13 1 0
BITMAP
0C00
0600
0300
0000
E3B0
E3F0
61E0
61C0
C380
C300
C700
FF80
7B80
ENDCHAR
STARTCHAR uni1EEE
ENCODING 7918
SWIDTH 600 0
DWIDTH 11 0
BBX 15 14 1 0
BITMAP
03B0
06E0
0000
7DF6
7DFE
306C
6078
60D0
60C0
C0C0
C180
E380
7F00
3E00
ENDCHAR
STARTCHAR uni1EEF
ENCODING 7919
SWIDTH 600 0
DWIDTH 11 0
BBX 12 12 1 0
BITMAP
0EC0
1B80
0000
E3B0
E3F0
61E0
61C0
C380
C300
C700
FF80
7B80
ENDCHAR
STARTCHAR uni1EF0
ENCODING 7920
SWIDTH 600 0
DWIDTH 11 0
BBX 15 14 1 -3
BITMAP
7DF6
7DFE
306C
6078
60D0
60C0
C0C0
C180
E380
7F00
3E00
0000
0600
0600
ENDCHAR
STARTCHAR uni1EF1
ENCODING 7921
SWIDTH 600 0
DWIDTH 11 0
BBX 12 12 1 -3
BITMAP
E3B0
E3F0
61E0
61C0
C380
C300
C700
FF80
7B80
0000
0C00
0C00
ENDCHAR
STARTCHAR Ygrave
ENCODING 7922
SWIDTH 600 0
DWIDTH 11 0
BBX 10 15 2 0
BITMAP
3000
1800
0C00
0000
F3C0
F3C0
6180
6300
3600
3C00
1800
3000
3000
FC00
FC00
ENDCHAR
STARTCHAR ygrave
ENCODING 7923
SWIDTH 600 0
DWIDTH 11 0
BBX 12 17 0 -4
BITMAP
0C00
0600
0300
0000
3CF0
3CF0
1860
0CC0
0D80
0700
0600
0600
0C00
1800
3000
F800
F800
ENDCHAR
STARTCHAR uni1EF4
ENCODING 7924
SWIDTH 600 0
DWIDTH 11 0
BBX 10 14 2 -3
BITMAP
F3C0
F3C0
6180
6300
3600
3C00
1800
3000
3000
FC00
FC00
0000
1800
1800
ENDCHAR
STARTCHAR uni1EF5
ENCODING 7925
SWIDTH 600 0
DWIDTH 11 0
BBX 12 16 0 -7
BITMAP
3CF0
3CF0
1860
0CC0
0D80
0700
0600
0600
0C00
1800
3000
F800
F800
0000
1800
1800
ENDCHAR
STARTCHAR uni1EF8
ENCODING 7928
SWIDTH 600 0
DWIDTH 11 0
BBX 10 14 2 0
BITMAP
1D80
3700
0000
F3C0
F3C0
6180
6300
3600
3C00
1800
3000
3000
FC00
FC00
ENDCHAR
STARTCHAR uni1EF9
ENCODING 7929
SWIDTH 600 0
DWIDTH 11 0
BBX 12 16 0 -4
BITMAP
0EC0
1B80
0000
3CF0
3CF0
1860
0CC0
0D80
0700
0600
0600
0C00
1800
3000
F800
F800
ENDCHAR
STARTCHAR uni2000
ENCODING 8192
SWIDTH 600 0
DWIDTH 11 0
BBX 1 1 0 0
BITMAP
00
ENDCHAR
STARTCHAR uni2001
ENCODING 8193
SWIDTH 600 0
DWIDTH 11 0
BBX 1 1 0 0
BITMAP
00
ENDCHAR
STARTCHAR uni2002
ENCODING 8194
SWIDTH 600 0
DWIDTH 11 0
BBX 1 1 0 0
BITMAP
00
ENDCHAR
STARTCHAR uni2003
ENCODING 8195
SWIDTH 600 0
DWIDTH 11 0
BBX 1 1 0 0
BITMAP
00
ENDCHAR
STARTCHAR uni2004
ENCODING 8196
SWIDTH 600 0
DWIDTH 11 0
BBX 1 1 0 0
BITMAP
00
ENDCHAR
STARTCHAR uni2005
ENCODING 8197
SWIDTH 600 0
DWIDTH 11 0
BBX 1 1 0 0
BITMAP
00
ENDCHAR
STARTCHAR uni2006
ENCODING 8198
SWIDTH 600 0
DWIDTH 11 0
BBX 1 1 0 0
BITMAP
00
ENDCHAR
STARTCHAR uni2007
ENCODING 8199
SWIDTH 600 0
DWIDTH 11 0
BBX 1 1 0 0
BITMAP
00
ENDCHAR
STARTCHAR uni2008
ENCODING 8200
SWIDTH 600 0
DWIDTH 11 0
BBX 1 1 0 0
BITMAP
00
ENDCHAR
STARTCHAR uni2009
ENCODING 8201
SWIDTH 600 0
DWIDTH 11 0
BBX 1 1 0 0
BITMAP
00
ENDCHAR
STARTCHAR uni200A
ENCODING 8202
SWIDTH 600 0
DWIDTH 11 0
BBX 1 1 0 0
BITMAP
00
ENDCHAR
STARTCHAR uni2010
ENCODING 8208
SWIDTH 600 0
DWIDTH 11 0
BBX 9 2 2 4
BITMAP
FF80
FF80
ENDCHAR
STARTCHAR uni2011
ENCODING 8209
SWIDTH 600 0
DWIDTH 11 0
BBX 9 2 2 4
BITMAP
FF80
FF80
ENDCHAR
STARTCHAR figuredash
ENCODING 8210
SWIDTH 600 0
DWIDTH 11 0
BBX 9 2 1 4
BITMAP
FF80
FF80
ENDCHAR
STARTCHAR endash
ENCODING 8211
SWIDTH 600 0
DWIDTH 11 0
BBX 9 2 1 4
BITMAP
FF80
FF80
ENDCHAR
STARTCHAR emdash
ENCODING 8212
SWIDTH 600 0
DWIDTH 11 0
BBX 11 2 0 4
BITMAP
FFE0
FFE0
ENDCHAR
STARTCHAR afii00208
ENCODING 8213
SWIDTH 600 0
DWIDTH 11 0
BBX 11 2 0 4
BITMAP
FFE0
FFE0
ENDCHAR
STARTCHAR quoteleft
ENCODING 8216
SWIDTH 600 0
DWIDTH 11 0
BBX 3 5 6 7
BITMAP
C0
C0
60
60
20
ENDCHAR
STARTCHAR quoteright
ENCODING 8217
SWIDTH 600 0
DWIDTH 11 0
BBX 4 5 5 7
BITMAP
30
70
60
C0
80
ENDCHAR
STARTCHAR quotesinglbase
ENCODING 8218
SWIDTH 600 0
DWIDTH 11 0
BBX 4 5 2 -3
BITMAP
30
30
60
60
C0
ENDCHAR
STARTCHAR quotereversed
ENCODING 8219
SWIDTH 600 0
DWIDTH 11 0
BBX 4 5 5 7
BITMAP
C0
E0
60
30
10
ENDCHAR
STARTCHAR quotedblleft
ENCODING 8220
SWIDTH 600 0
DWIDTH 11 0
BBX 6 5 3 7
BITMAP
D8
D8
6C
6C
24
ENDCHAR
STARTCHAR quotedblright
ENCODING 8221
SWIDTH 600 0
DWIDTH 11 0
BBX 7 5 4 7
BITMAP
36
7E
6C
D8
90
ENDCHAR
STARTCHAR quotedblbase
ENCODING 8222
SWIDTH 600 0
DWIDTH 11 0
BBX 7 5 2 -3
BITMAP
36
36
6C
6C
D8
ENDCHAR
STARTCHAR uni201F
ENCODING 8223
SWIDTH 600 0
DWIDTH 11 0
BBX 7 5 4 7
BITMAP
D8
FC
6C
36
12
ENDCHAR
STARTCHAR dagger
ENCODING 8224
SWIDTH 600 0
DWIDTH 11 0
BBX 9 14 2 -2
BITMAP
0C00
0C00
0C00
FF80
FF80
1800
1800
3000
3000
3000
3000
6000
6000
6000
ENDCHAR
STARTCHAR daggerdbl
ENCODING 8225
SWIDTH 600 0
DWIDTH 11 0
BBX 10 14 1 -2
BITMAP
0600
0600
0600
7FC0
7FC0
0C00
0C00
1800
FF00
FF00
1800
3000
3000
3000
ENDCHAR
STARTCHAR bullet
ENCODING 8226
SWIDTH 600 0
DWIDTH 11 0
BBX 6 5 4 4
BITMAP
38
7C
FC
F8
70
ENDCHAR
STARTCHAR ellipsis
ENCODING 8230
SWIDTH 600 0
DWIDTH 11 0
BBX 10 2 1 0
BITMAP
CCC0
CCC0
ENDCHAR
STARTCHAR perthousand
ENCODING 8240
SWIDTH 600 0
DWIDTH 11 0
BBX 11 12 0 0
BITMAP
3800
6800
5800
70E0
0780
3C00
E000
0000
39C0
6B40
5AC0
7380
ENDCHAR
STARTCHAR guilsinglleft
ENCODING 8249
SWIDTH 600 0
DWIDTH 11 0
BBX 5 6 2 1
BITMAP
18
30
60
C0
60
30
ENDCHAR
STARTCHAR guilsinglright
ENCODING 8250
SWIDTH 600 0
DWIDTH 11 0
BBX 5 6 3 1
BITMAP
60
30
18
30
60
C0
ENDCHAR
STARTCHAR uni203D
ENCODING 8253
SWIDTH 600 0
DWIDTH 11 0
BBX 7 12 4 0
BITMAP
1C
7C
FE
FE
3E
3C
70
E0
E0
00
E0
E0
ENDCHAR
STARTCHAR fraction
ENCODING 8260
SWIDTH 600 0
DWIDTH 11 0
BBX 12 5 0 3
BITMAP
00F0
03C0
0F00
3C00
F000
ENDCHAR
STARTCHAR oneinferior
ENCODING 8321
SWIDTH 600 0
DWIDTH 11 0
BBX 6 8 3 -4
BITMAP
18
78
18
10
10
30
30
FC
ENDCHAR
STARTCHAR twoinferior
ENCODING 8322
SWIDTH 600 0
DWIDTH 11 0
BBX 7 8 3 -4
BITMAP
3C
66
06
0C
38
60
C4
FC
ENDCHAR
STARTCHAR threeinferior
ENCODING 8323
SWIDTH 600 0
DWIDTH 11 0
BBX 7 8 2 -4
BITMAP
3C
66
46
18
0C
8C
CC
78
ENDCHAR
STARTCHAR uni20A5
ENCODING 8357
SWIDTH 600 0
DWIDTH 11 0
BBX 14 16 -2 -3
BITMAP
000C
0018
0030
0060
3DF0
3FF8
1DD8
1B98
1B98
3730
3F30
7BB8
7BB8
3000
6000
C000
ENDCHAR
STARTCHAR uni20A6
ENCODING 8358
SWIDTH 600 0
DWIDTH 11 0
BBX 12 11 0 0
BITMAP
39F0
39F0
3FF0
3FF0
34C0
36C0
7FE0
7FE0
6380
FB80
FB80
ENDCHAR
STARTCHAR uni20A9
ENCODING 8361
SWIDTH 600 0
DWIDTH 11 0
BBX 12 11 1 0
BITMAP
F9F0
F9F0
7FF0
7FF0
6CC0
DEC0
FFE0
FFE0
E780
E300
C300
ENDCHAR
STARTCHAR Euro
ENCODING 8364
SWIDTH 600 0
DWIDTH 11 0
BBX 14 11 -2 0
BITMAP
01EC
07FC
7FF8
7FF8
1800
1800
FFC0
FFC0
1C30
0FF0
07C0
ENDCHAR
STARTCHAR uni20AD
ENCODING 8365
SWIDTH 600 0
DWIDTH 11 0
BBX 12 11 0 0
BITMAP
3DF0
3DF0
18C0
1980
FFF0
FFF0
3E00
6700
6380
F9E0
F9E0
ENDCHAR
STARTCHAR trademark
ENCODING 8482
SWIDTH 600 0
DWIDTH 11 0
BBX 11 5 1 6
BITMAP
FC60
36E0
37E0
6D40
6D40
ENDCHAR
STARTCHAR uni212A
ENCODING 8490
SWIDTH 600 0
DWIDTH 11 0
BBX 12 11 0 0
BITMAP
3DF0
3DF0
18C0
1980
3300
3E00
3E00
6700
6380
F9E0
F9E0
ENDCHAR
STARTCHAR uni212B
ENCODING 8491
SWIDTH 600 0
DWIDTH 11 0
BBX 12 15 -1 0
BITMAP
01C0
0240
0240
0180
0F80
0F80
0380
0780
0480
0CC0
1FC0
3FC0
30C0
F9F0
F9F0
ENDCHAR
STARTCHAR uni2132
ENCODING 8498
SWIDTH 600 0
DWIDTH 11 0
BBX 12 11 0 0
BITMAP
07F0
07F0
00C0
00C0
0CC0
0F80
0F80
6D80
6300
FFC0
FFC0
ENDCHAR
STARTCHAR minus
ENCODING 8722
SWIDTH 600 0
DWIDTH 11 0
BBX 9 2 1 4
BITMAP
FF80
FF80
ENDCHAR
STARTCHAR fraction
ENCODING 8725
SWIDTH 600 0
DWIDTH 11 0
BBX 12 5 0 3
BITMAP
00F0
03C0
0F00
3C00
F000
ENDCHAR
STARTCHAR periodcentered
ENCODING 8729
SWIDTH 600 0
DWIDTH 11 0
BBX 2 2 5 5
BITMAP
C0
C0
ENDCHAR
STARTCHAR uni2236
ENCODING 8758
SWIDTH 600 0
DWIDTH 11 0
BBX 3 8 4 0
BITMAP
60
60
00
00
00
00
C0
C0
ENDCHAR
STARTCHAR uni2259
ENCODING 8793
SWIDTH 600 0
DWIDTH 11 0
BBX 11 10 0 2
BITMAP
0600
0F00
1980
0000
7FE0
7FE0
0000
0000
FFC0
FFC0
ENDCHAR
STARTCHAR uni225A
ENCODING 8794
SWIDTH 600 0
DWIDTH 11 0
BBX 11 10 0 2
BITMAP
1980
1F00
0E00
0000
7FE0
7FE0
0000
0000
FFC0
FFC0
ENDCHAR
STARTCHAR notequal
ENCODING 8800
SWIDTH 600 0
DWIDTH 11 0
BBX 14 16 -1 -3
BITMAP
000C
0018
0030
0060
0060
3FF0
3FF0
0300
0300
7FE0
7FE0
1800
1800
3000
6000
C000
ENDCHAR
STARTCHAR equivalence
ENCODING 8801
SWIDTH 600 0
DWIDTH 11 0
BBX 11 8 0 1
BITMAP
FFE0
FFE0
0000
FFE0
FFE0
0000
FFE0
FFE0
ENDCHAR
STARTCHAR uni2262
ENCODING 8802
SWIDTH 600 0
DWIDTH 11 0
BBX 14 16 -1 -3
BITMAP
000C
0018
0030
0060
7FF0
7FF0
0180
7FF0
7FF0
0600
7FF0
7FF0
1800
3000
6000
C000
ENDCHAR
STARTCHAR lessequal
ENCODING 8804
SWIDTH 600 0
DWIDTH 11 0
BBX 11 12 1 -2
BITMAP
01E0
0780
1E00
7800
E000
7800
1E00
0780
01C0
0000
FFE0
FFE0
ENDCHAR
STARTCHAR greaterequal
ENCODING 8805
SWIDTH 600 0
DWIDTH 11 0
BBX 11 12 0 -2
BITMAP
7000
3C00
0F00
03C0
00E0
03C0
0F00
3C00
F000
0000
FFE0
FFE0
ENDCHAR
STARTCHAR uni226E
ENCODING 8814
SWIDTH 600 0
DWIDTH 11 0
BBX 14 16 0 -2
BITMAP
000C
0018
0030
0060
00F0
03C0
0F80
3F00
7300
3E00
0F00
1BC0
18E0
3000
6000
C000
ENDCHAR
STARTCHAR uni226F
ENCODING 8815
SWIDTH 600 0
DWIDTH 11 0
BBX 14 16 -1 -2
BITMAP
000C
0018
0030
0060
3860
1EC0
0780
03E0
0370
07E0
0F80
1E00
7800
3000
6000
C000
ENDCHAR
STARTCHAR uni2270
ENCODING 8816
SWIDTH 600 0
DWIDTH 11 0
BBX 14 16 0 -4
BITMAP
000C
0018
00F0
03E0
0F60
3CC0
7180
3F00
0F00
07C0
0CE0
1800
7FF0
7FF0
6000
C000
ENDCHAR
STARTCHAR uni2271
ENCODING 8817
SWIDTH 600 0
DWIDTH 11 0
BBX 14 16 -1 -4
BITMAP
000C
0018
3830
1E60
07E0
01E0
01F0
03E0
0780
1E00
7C00
1800
7FF0
7FF0
6000
C000
ENDCHAR
STARTCHAR fi
ENCODING -1
SWIDTH 600 0
DWIDTH 11 0
BBX 11 12 0 0
BITMAP
0360
0F60
0C00
7FC0
7FC0
18C0
18C0
3980
3180
3180
FFE0
FFE0
ENDCHAR
STARTCHAR fl
ENCODING -1
SWIDTH 600 0
DWIDTH 11 0
BBX 11 12 0 0
BITMAP
0360
0FE0
0C60
7E60
7EC0
18C0
18C0
3980
3180
3180
FFE0
FFE0
ENDCHAR
ENDFONT
